<svg width="126" height="31" viewBox="0 0 126 31" fill="none" xmlns="http://www.w3.org/2000/svg">
<rect y="0.00012207" width="125.311" height="30.24" rx="15.12" fill="#06F395"/>
<path d="M23.808 15.8081C23.296 16.8641 22.416 17.4881 21.184 17.4881C19.232 17.4881 18.112 16.0001 18.112 13.6321C18.112 11.2641 19.264 9.72812 21.184 9.72812C22.448 9.72812 23.312 10.4001 23.84 11.5361L25.52 10.4961C24.976 9.55212 23.712 8.00012 21.184 8.00012C18 8.00012 16 10.3041 16 13.6321C16 16.9441 17.84 19.2641 21.184 19.2641C23.856 19.2641 25.136 17.5841 25.632 16.5761L23.808 15.8081Z" fill="#121212"/>
<path d="M26.5312 15.2961C26.5312 17.7281 28.0032 19.2641 30.3392 19.2641C32.6753 19.2641 34.1473 17.7281 34.1473 15.2961C34.1473 12.8481 32.6592 11.2801 30.3392 11.2801C28.0192 11.2801 26.5312 12.8481 26.5312 15.2961ZM28.3392 15.2641C28.3392 13.7441 29.1392 12.8321 30.3392 12.8321C31.5392 12.8321 32.3393 13.7281 32.3393 15.2641C32.3393 16.7681 31.5072 17.6961 30.3392 17.6961C29.1712 17.6961 28.3392 16.7841 28.3392 15.2641Z" fill="#121212"/>
<path d="M41.8416 12.0001C41.3936 11.5041 40.7376 11.2641 39.9536 11.2641C38.7536 11.2641 37.9376 11.7921 37.5696 12.4321V11.4561H35.7456V19.0721H37.5696V14.9921C37.5696 13.7601 38.0976 12.8801 39.2176 12.8801C40.5936 12.8801 40.6896 13.8401 40.6896 15.2161V19.0721H42.5136V14.9921C42.5136 13.7601 43.0256 12.8801 44.1616 12.8801C45.5376 12.8801 45.6336 13.8401 45.6336 15.2161V19.0721H47.4576V14.7521C47.4576 13.0721 47.2656 12.5441 46.7856 12.0001C46.3856 11.5521 45.7456 11.2641 44.7696 11.2641C43.3936 11.2641 42.6256 11.8881 42.1616 12.4481C42.0656 12.2881 41.9696 12.1441 41.8416 12.0001Z" fill="#121212"/>
<path d="M51.3196 11.4561H49.4956V19.0721H51.3196V11.4561ZM51.3196 8.19212H49.4956V10.0481H51.3196V8.19212Z" fill="#121212"/>
<path d="M60.2019 14.7521C60.2019 13.2801 60.0419 12.7041 59.6899 12.2081C59.1779 11.5201 58.4579 11.2641 57.5939 11.2641C56.4419 11.2641 55.5779 11.7601 55.2259 12.4321V11.4561H53.4019V19.0721H55.2259V14.9921C55.2259 13.7601 55.7699 12.8801 56.9059 12.8801C57.6899 12.8801 58.0899 13.2161 58.2499 13.7601C58.3619 14.1441 58.3779 14.6401 58.3779 15.2161V19.0721H60.2019V14.7521Z" fill="#121212"/>
<path d="M62.006 19.5841C62.07 21.2161 63.206 22.2401 65.494 22.2401C67.366 22.2401 68.534 21.7441 69.014 20.4641C69.19 19.9841 69.254 19.4561 69.254 18.6401V11.4561H67.43V12.2881C67.014 11.7441 66.214 11.2641 65.158 11.2641C63.062 11.2641 61.814 12.8801 61.814 15.2801C61.814 17.6001 63.11 19.1041 65.174 19.1041C66.518 19.1041 67.158 18.4801 67.414 18.1281H67.43V18.8161C67.43 20.2561 66.934 20.8161 65.558 20.8161C64.246 20.8161 63.926 20.1441 63.846 19.4401L62.006 19.5841ZM67.51 15.2161C67.51 16.6881 66.79 17.5681 65.574 17.5681C64.342 17.5681 63.638 16.7361 63.638 15.2161C63.638 13.6801 64.342 12.8321 65.574 12.8321C66.79 12.8321 67.51 13.7441 67.51 15.2161Z" fill="#121212"/>
<path d="M83.2914 9.80812C82.6514 9.10412 81.3234 8.00012 79.0674 8.00012C76.7634 8.00012 74.9554 9.29612 74.9554 11.2321C74.9554 13.2161 76.4434 13.9681 78.2194 14.3521L79.6754 14.6721C80.7794 14.9121 81.5314 15.2321 81.5314 16.0801C81.5314 16.9441 80.7794 17.5521 79.3234 17.5521C77.7874 17.5521 76.5874 16.7041 76.0914 15.8881L74.4914 17.0401C75.2434 18.0961 76.8594 19.2641 79.2274 19.2641C81.9474 19.2641 83.5954 17.9201 83.5954 15.9041C83.5954 13.9201 82.1234 13.2641 80.0914 12.8001L78.7794 12.5121C77.5474 12.2401 77.0194 11.9361 77.0194 11.1361C77.0194 10.3041 77.7554 9.68012 79.0194 9.68012C80.2354 9.68012 81.2274 10.2401 81.8354 10.9921L83.2914 9.80812Z" fill="#121212"/>
<path d="M84.5625 15.2961C84.5625 17.7281 86.0345 19.2641 88.3705 19.2641C90.7065 19.2641 92.1785 17.7281 92.1785 15.2961C92.1785 12.8481 90.6905 11.2801 88.3705 11.2801C86.0505 11.2801 84.5625 12.8481 84.5625 15.2961ZM86.3705 15.2641C86.3705 13.7441 87.1705 12.8321 88.3705 12.8321C89.5705 12.8321 90.3705 13.7281 90.3705 15.2641C90.3705 16.7681 89.5385 17.6961 88.3705 17.6961C87.2025 17.6961 86.3705 16.7841 86.3705 15.2641Z" fill="#121212"/>
<path d="M93.2969 15.2961C93.2969 17.7281 94.7689 19.2641 97.1049 19.2641C99.4409 19.2641 100.913 17.7281 100.913 15.2961C100.913 12.8481 99.4249 11.2801 97.1049 11.2801C94.7849 11.2801 93.2969 12.8481 93.2969 15.2961ZM95.1049 15.2641C95.1049 13.7441 95.9049 12.8321 97.1049 12.8321C98.3049 12.8321 99.1049 13.7281 99.1049 15.2641C99.1049 16.7681 98.2729 17.6961 97.1049 17.6961C95.9369 17.6961 95.1049 16.7841 95.1049 15.2641Z" fill="#121212"/>
<path d="M109.311 14.7521C109.311 13.2801 109.151 12.7041 108.799 12.2081C108.287 11.5201 107.567 11.2641 106.703 11.2641C105.551 11.2641 104.687 11.7601 104.335 12.4321V11.4561H102.511V19.0721H104.335V14.9921C104.335 13.7601 104.879 12.8801 106.015 12.8801C106.799 12.8801 107.199 13.2161 107.359 13.7601C107.471 14.1441 107.487 14.6401 107.487 15.2161V19.0721H109.311V14.7521Z" fill="#121212"/>
</svg>
