<svg width="16" height="20" viewBox="0 0 16 20" fill="none" xmlns="http://www.w3.org/2000/svg">
<g clip-path="url(#clip0_855_355)">
<path d="M11.0029 0V4.99414H16L11.0029 0ZM9.99413 5.76788V0H0.985337C0.719452 0 0.488759 0.0976931 0.293255 0.293083C0.0977504 0.488473 0 0.71903 0 0.98476V18.9918C0 19.2732 0.0977504 19.5115 0.293255 19.7069C0.488759 19.9023 0.719452 20 0.985337 20H15.0147C15.2805 20 15.5112 19.9023 15.7067 19.7069C15.9022 19.5115 16 19.2732 16 18.9918V6.00234H9.99413V5.76788ZM11.0029 12.9894L8 16.9988L4.99707 12.9894H6.9912V7.99531H9.0088V12.9894H11.0029Z" fill="black"/>
</g>
<defs>
<clipPath id="clip0_855_355">
<rect width="16" height="20" fill="white"/>
</clipPath>
</defs>
</svg>
