<?xml version="1.0" encoding="utf-8"?>
<!-- Generator: Adobe Illustrator 27.2.0, SVG Export Plug-In . SVG Version: 6.00 Build 0)  -->
<svg version="1.1" id="Layer_1" xmlns="http://www.w3.org/2000/svg" xmlns:xlink="http://www.w3.org/1999/xlink" x="0px" y="0px"
	 viewBox="0 0 14 20" enable-background="new 0 0 14 20" xml:space="preserve">


	<path clip-path="url(#SVGID_00000021099368911376191380000013738199763935950500_)" d="M7,12c0.8,0,1.5-0.3,2.1-0.9
		C9.7,10.5,10,9.8,10,9V3c0-0.8-0.3-1.5-0.9-2.1C8.5,0.3,7.8,0,7,0S5.5,0.3,4.9,0.9C4.3,1.5,4,2.2,4,3v6c0,0.8,0.3,1.5,0.9,2.1
		C5.5,11.7,6.2,12,7,12z M12,9c0,0.7-0.1,1.3-0.4,1.9c-0.3,0.6-0.6,1.1-1.1,1.6c-0.5,0.5-1,0.8-1.6,1.1C8.3,13.9,7.7,14,7,14
		s-1.3-0.1-1.9-0.4c-0.6-0.3-1.1-0.6-1.6-1.1c-0.5-0.5-0.8-1-1.1-1.6C2.1,10.3,2,9.7,2,9H0c0,0.9,0.2,1.7,0.5,2.5
		c0.3,0.8,0.7,1.5,1.3,2.1c0.5,0.6,1.2,1.1,1.9,1.5c0.7,0.4,1.5,0.7,2.4,0.8V20h2v-4.1c0.8-0.1,1.6-0.4,2.4-0.8
		c0.7-0.4,1.4-0.9,1.9-1.5c0.5-0.6,1-1.3,1.3-2.1C13.8,10.7,14,9.9,14,9H12z"/>

</svg>
