<svg width="16" height="20" viewBox="0 0 16 20" fill="none" xmlns="http://www.w3.org/2000/svg">
<g clip-path="url(#clip0_852_568)">
<path d="M11.0029 0V4.99414H16L11.0029 0ZM9.99413 5.76788V0H0.985337C0.719452 0 0.488759 0.0976931 0.293255 0.293083C0.0977504 0.488473 0 0.71903 0 0.98476V18.9918C0 19.2732 0.0977504 19.5115 0.293255 19.7069C0.488759 19.9023 0.719452 20 0.985337 20H15.0147C15.2805 20 15.5112 19.9023 15.7067 19.7069C15.9022 19.5115 16 19.2732 16 18.9918V6.00234H9.99413V5.76788ZM6.9912 13.7163L5.46628 15.0059L3.00293 12.0047L5.46628 9.00352L6.9912 10.2696L5.58358 12.0047L6.9912 13.7163ZM10.5337 9.00352L12.9971 12.0047L10.5337 15.0059L9.0088 13.7163L10.4164 12.0047L9.0088 10.2696L10.5337 9.00352Z" fill="black"/>
</g>
<defs>
<clipPath id="clip0_852_568">
<rect width="16" height="20" fill="white"/>
</clipPath>
</defs>
</svg>
