<?xml version="1.0" encoding="utf-8"?>
<!-- Generator: Adobe Illustrator 24.2.0, SVG Export Plug-In . SVG Version: 6.00 Build 0)  -->
<svg version="1.1" id="Layer_1" xmlns="http://www.w3.org/2000/svg" xmlns:xlink="http://www.w3.org/1999/xlink" x="0px" y="0px"
	 viewBox="0 0 339 111.5" style="enable-background:new 0 0 339 111.5;" xml:space="preserve">
<style type="text/css">
	.st0{fill:#003764;}
	.st1{fill:#009ADE;}
</style>
<g>
	<g>
		<path class="st0" d="M140.5,14.9H155v1.5h-6.3v16.7h-1.7V16.4h-6.3L140.5,14.9L140.5,14.9z"/>
		<path class="st0" d="M156.7,14.9h1.7v7.9h10.8v-7.9h1.7v18.2h-1.7v-8.8h-10.8v8.8h-1.7V14.9z"/>
		<path class="st0" d="M174.7,14.9h12.5v1.5h-10.8V23h10.2v1.5h-10.2v7.2h11v1.5h-12.7V14.9z"/>
	</g>
	<g>
		<path class="st0" d="M140.5,78.3h11.6v1.5h-9.8v6.6h8.7v1.5h-8.7v8.7h-1.7L140.5,78.3L140.5,78.3z"/>
		<path class="st0" d="M161.8,77.9c5.7,0,8.6,4.5,8.6,9.5c0,5-2.9,9.5-8.6,9.5c-5.8,0-8.6-4.5-8.6-9.5
			C153.3,82.4,156.2,77.9,161.8,77.9z M161.8,95.4c4.8,0,6.9-4.1,6.9-8c0-4-2.1-8-6.9-8c-4.8,0-6.9,4.1-6.9,8
			C155,91.4,157,95.4,161.8,95.4z"/>
		<path class="st0" d="M173,78.3h1.7v11.3c0,4.2,2,5.8,5.3,5.8c3.4,0,5.4-1.6,5.4-5.8V78.3h1.8v11.7c0,3.8-2,6.9-7.1,6.9
			c-5,0-7.1-3.2-7.1-6.9L173,78.3L173,78.3z"/>
		<path class="st0" d="M190.6,78.3h1.9l10.6,15.4h0.1V78.3h1.8v18.2h-1.9l-10.6-15.4h-0.1v15.4h-1.8V78.3z"/>
		<path class="st0" d="M208.5,78.3h6.3c5.5,0.1,8.3,3.1,8.3,9.1c0,6-2.9,9-8.3,9.1h-6.3V78.3z M210.3,95h3.7c5.2,0,7.5-2.1,7.5-7.6
			s-2.3-7.6-7.5-7.6h-3.7V95z"/>
		<path class="st0" d="M231.3,78.3h1.9l7.2,18.2h-1.8l-2.2-5.7h-8.3l-2.2,5.7H224L231.3,78.3z M228.6,89.4h7.2l-3.5-9.3L228.6,89.4z
			"/>
		<path class="st0" d="M238.4,78.3h14.5v1.5h-6.3v16.7h-1.8V79.8h-6.3V78.3z"/>
		<path class="st0" d="M254.6,78.3h1.8v18.2h-1.8V78.3z"/>
		<path class="st0" d="M267.7,77.9c5.7,0,8.6,4.5,8.6,9.5c0,5-2.9,9.5-8.6,9.5c-5.8,0-8.6-4.5-8.6-9.5
			C259.2,82.4,262.1,77.9,267.7,77.9z M267.7,95.4c4.8,0,6.9-4.1,6.9-8c0-4-2.1-8-6.9-8s-6.9,4.1-6.9,8
			C260.9,91.4,262.9,95.4,267.7,95.4z"/>
		<path class="st0" d="M279,78.3h1.9l10.6,15.4h0.1V78.3h1.8v18.2h-1.9l-10.6-15.4h-0.1v15.4H279V78.3z"/>
	</g>
	<g>
		<path class="st0" d="M140.5,38.5h10v24.2h14.4v8.3h-24.4L140.5,38.5L140.5,38.5z"/>
		<path class="st0" d="M171.6,38.5h10v32.5h-10V38.5z"/>
		<path class="st0" d="M189,38.5h10.3l9.5,17.4h0.1V38.5h9.5v32.5h-9.7l-10-17.7h-0.1v17.8H189V38.5z"/>
		<path class="st0" d="M255.5,58.5c0,9.1-4.8,13.3-14.8,13.3s-14.9-4.3-14.9-13.3v-20h10v17.8c0,3.3-0.1,7.4,4.9,7.4
			c4.7,0,4.7-4.2,4.7-7.4V38.5h10L255.5,58.5L255.5,58.5z"/>
		<path class="st0" d="M271.4,53.8l-10.7-15.3h11.8l4.9,8.8l4.9-8.8h11.1L283,53.9l11.5,17.3h-12.1l-5.5-9.7l-5.8,9.7h-11.5
			L271.4,53.8z"/>
	</g>
	<g>
		<polygon class="st1" points="60.9,80.1 60.9,47.4 44.5,47.4 44.5,96.5 93.6,96.5 93.6,80.1 		"/>
		<polygon class="st0" points="126.4,14.6 44.5,14.6 44.5,39.2 60.9,39.2 60.9,31.1 110,31.1 110,80.1 101.8,80.1 101.8,96.5 
			126.4,96.5 		"/>
	</g>
</g>
</svg>
