<?xml version="1.0" encoding="utf-8"?>
<!-- Generator: Adobe Illustrator 24.2.0, SVG Export Plug-In . SVG Version: 6.00 Build 0)  -->
<svg version="1.1" id="Layer_1" xmlns="http://www.w3.org/2000/svg" xmlns:xlink="http://www.w3.org/1999/xlink" x="0px" y="0px"
	 viewBox="0 0 310.6 130.8" style="enable-background:new 0 0 310.6 130.8;" xml:space="preserve">
<style type="text/css">
	.st0{fill:#242425;}
	.st1{fill:#E73427;}
	.st2{fill:#1D539F;}
	.st3{fill:#F8B92A;}
</style>
<g id="Layer_2_1_">
	<g id="Layer_1-2">
		<g id="mlh-logo-color-dark">
			<g id="Major_League_Hacking">
				<path class="st0" d="M65.4,97c0.6,0.3,1.1,0.9,1.1,1.6v8.5c0,0.2-0.1,0.3-0.3,0.3h-2.1c-0.1,0-0.1,0-0.2-0.1
					c-0.1-0.1-0.1-0.1-0.1-0.2v-7.7h-1.7v7.7c0,0.1,0,0.1-0.1,0.2c0,0.1-0.1,0.1-0.2,0.1h-1.9c-0.2,0-0.3-0.1-0.3-0.3l0,0l0,0v-7.7
					H58v7.7c0,0.1-0.1,0.3-0.2,0.3h-2.2c-0.1,0-0.3-0.1-0.3-0.2V97.2c0-0.1,0.1-0.3,0.2-0.3h9.2C64.9,96.9,65.2,96.9,65.4,97z"/>
				<path class="st0" d="M75.9,96.9c0.7,0,1.4,0.4,1.6,1.1c0.1,0.2,0.1,0.4,0.1,0.7v8.5c0,0.1-0.1,0.3-0.3,0.3c0,0,0,0,0,0h-2.1
					c-0.2,0-0.3-0.1-0.3-0.3l0,0v-2.7c0-0.1,0-0.1-0.1-0.2c0-0.1-0.1-0.1-0.2-0.1h-3c-0.2,0-0.3,0.1-0.3,0.3l0,0v2.7
					c0,0.1-0.1,0.3-0.2,0.3c0,0,0,0,0,0h-2.2c-0.1,0-0.3-0.1-0.3-0.2c0,0,0,0,0,0v-8.6c0-0.2,0-0.5,0.1-0.7c0.1-0.2,0.2-0.4,0.4-0.6
					c0.2-0.2,0.4-0.3,0.6-0.4c0.2-0.1,0.4-0.1,0.7-0.1L75.9,96.9z M75,101.9v-2.7h-3.5v2.7L75,101.9z"/>
				<path class="st0" d="M87.2,97c0.1,0,0.1,0.1,0.1,0.2v8.5c0,0.2,0,0.5-0.1,0.7c-0.1,0.2-0.2,0.4-0.4,0.6
					c-0.2,0.2-0.4,0.3-0.6,0.4c-0.2,0.1-0.5,0.1-0.7,0.1H81c-0.2,0-0.5,0-0.7-0.1c-0.7-0.3-1.1-0.9-1.1-1.6v-3.2
					c0-0.1,0.1-0.3,0.2-0.3h2.2c0.1,0,0.3,0.1,0.3,0.2v2.2c0,0.1,0,0.1,0.1,0.2c0.1,0,0.1,0.1,0.2,0.1h2.2c0.1,0,0.1,0,0.2-0.1
					c0.1,0,0.1-0.1,0.1-0.2v-7.5c0-0.1,0-0.1,0.1-0.2c0-0.1,0.1-0.1,0.2-0.1H87C87.1,96.9,87.1,96.9,87.2,97z"/>
				<path class="st0" d="M96.7,96.9c0.2,0,0.5,0,0.7,0.1c0.4,0.2,0.8,0.5,0.9,0.9c0.1,0.2,0.1,0.4,0.1,0.7v7c0,0.2-0.1,0.5-0.1,0.7
					c-0.1,0.2-0.2,0.4-0.4,0.6c-0.2,0.2-0.4,0.3-0.6,0.4c-0.2,0.1-0.4,0.1-0.7,0.1h-5.3c-0.2,0-0.5,0-0.7-0.1
					c-0.7-0.3-1.1-0.9-1.1-1.6v-7c0-0.2,0-0.5,0.1-0.7c0.1-0.2,0.2-0.4,0.4-0.6c0.2-0.2,0.4-0.3,0.6-0.4c0.2-0.1,0.4-0.1,0.7-0.1
					L96.7,96.9z M95.8,99.5h-3.5v5.4h3.6L95.8,99.5z"/>
				<path class="st0" d="M110.1,107.2c0,0.1,0,0.1,0,0.2c0,0.1-0.1,0.1-0.2,0.1h-2.4c-0.1,0-0.2,0-0.2-0.1c-0.1,0-0.1-0.1-0.2-0.2
					l-1.6-2.9c0,0-0.1-0.1-0.1-0.1h-1.8c0,0-0.1,0-0.1,0c0,0,0,0,0,0l0,0v2.8c0,0.1-0.1,0.3-0.2,0.3c0,0,0,0,0,0h-2.1
					c-0.1,0-0.3-0.1-0.3-0.2c0,0,0-0.1,0-0.1v-10c0-0.1,0.1-0.3,0.2-0.3c0,0,0,0,0,0h6.9c0.2,0,0.5,0,0.7,0.1
					c0.4,0.2,0.8,0.5,0.9,0.9c0.1,0.2,0.1,0.4,0.1,0.7v4c0,0.4-0.1,0.7-0.3,1c-0.2,0.3-0.5,0.5-0.9,0.6h0c-0.1,0-0.1,0.1-0.1,0.1
					l0,0L110.1,107.2z M107.1,99.4h-3.6v2.6h3.6V99.4z"/>
				<path class="st0" d="M124.3,104.9c0.1,0,0.1,0,0.2,0.1c0.1,0.1,0.1,0.1,0.1,0.2v2c0,0.1,0,0.1-0.1,0.2c0,0.1-0.1,0.1-0.2,0.1
					h-6.5c-0.1,0-0.3-0.1-0.3-0.2V97.2c0-0.1,0.1-0.3,0.2-0.3h2.2c0.1,0,0.3,0.1,0.3,0.2c0,0,0,0,0,0.1v7.4c0,0.1,0,0.1,0.1,0.2
					c0.1,0.1,0.1,0.1,0.2,0.1L124.3,104.9z"/>
				<path class="st0" d="M134,97c0.1,0.1,0.1,0.1,0.1,0.2v1.9c0,0.1,0,0.2-0.1,0.2c-0.1,0.1-0.1,0.1-0.2,0.1h-5.1c0,0-0.1,0-0.1,0
					c0,0,0,0,0,0l0,0v1.6c0,0,0,0.1,0.1,0.1h4.3c0.1,0,0.1,0,0.2,0.1c0.1,0.1,0.1,0.1,0.1,0.2v1.5c0,0.1,0,0.1-0.1,0.2
					c0,0.1-0.1,0.1-0.2,0.1h-4.3c0,0-0.1,0-0.1,0.1l0,0v1.6c0,0,0,0.1,0,0.1c0,0,0,0,0,0h5.1c0.2,0,0.3,0.1,0.3,0.3v1.9
					c0,0.2-0.1,0.3-0.3,0.3c0,0,0,0,0,0h-7.5c-0.1,0-0.3-0.1-0.3-0.2V97.2c0-0.2,0.1-0.3,0.3-0.3h7.5C133.9,96.9,134,96.9,134,97z"
					/>
				<path class="st0" d="M143.6,96.9c0.2,0,0.5,0,0.7,0.1c0.4,0.2,0.8,0.5,0.9,0.9c0.1,0.2,0.1,0.4,0.1,0.7v8.5
					c0,0.1-0.1,0.3-0.3,0.3c0,0,0,0,0,0H143c-0.2,0-0.3-0.1-0.3-0.3l0,0l0,0v-2.7c0-0.1,0-0.1-0.1-0.2c0-0.1-0.1-0.1-0.2-0.1h-2.9
					c-0.2,0-0.3,0.1-0.3,0.3l0,0v2.7c0,0.1-0.1,0.3-0.2,0.3h-2.2c-0.1,0-0.3-0.1-0.3-0.2c0,0,0,0,0,0c0,0,0-0.1,0-0.1v-8.5
					c0-0.2,0-0.5,0.1-0.7c0.1-0.2,0.2-0.4,0.4-0.6c0.2-0.2,0.4-0.3,0.6-0.4c0.2-0.1,0.4-0.1,0.7-0.1L143.6,96.9z M142.7,101.9v-2.7
					h-3.5v2.7L142.7,101.9z"/>
				<path class="st0" d="M156.5,101.8c0.1,0.1,0.1,0.1,0.1,0.2v3.7c0,0.2,0,0.5-0.1,0.7c-0.1,0.2-0.2,0.4-0.4,0.6
					c-0.2,0.2-0.4,0.3-0.6,0.4c-0.2,0.1-0.4,0.1-0.7,0.1h-5.3c-1,0-1.8-0.8-1.8-1.8c0,0,0,0,0,0v-7c0-0.2,0-0.5,0.1-0.7
					c0.1-0.2,0.2-0.4,0.4-0.6c0.2-0.2,0.4-0.3,0.6-0.4c0.2-0.1,0.5-0.1,0.7-0.1h6.3c0.2,0,0.3,0.1,0.3,0.3l0,0v2
					c0,0.2-0.1,0.3-0.3,0.3h-5.1c-0.1,0-0.1,0-0.2,0.1c-0.1,0.1-0.1,0.1-0.1,0.2v4.9c0,0.1,0,0.1,0.1,0.2c0.1,0.1,0.1,0.1,0.2,0.1h3
					c0.1,0,0.3-0.1,0.3-0.2c0,0,0,0,0,0V102c0-0.1,0.1-0.3,0.3-0.3c0,0,0,0,0,0h2.1C156.4,101.7,156.5,101.7,156.5,101.8z"/>
				<path class="st0" d="M167.7,97c0.1,0.1,0.1,0.1,0.1,0.2v8.5c0,0.2-0.1,0.5-0.1,0.7c-0.1,0.2-0.2,0.4-0.4,0.6
					c-0.2,0.2-0.4,0.3-0.6,0.4c-0.2,0.1-0.5,0.1-0.7,0.1h-5.3c-0.2,0-0.5,0-0.7-0.1c-0.4-0.2-0.8-0.5-0.9-0.9
					c-0.1-0.2-0.1-0.5-0.1-0.7v-8.5c0-0.1,0.1-0.3,0.2-0.3h2.2c0.1,0,0.3,0.1,0.3,0.2c0,0,0,0,0,0.1v7.4c0,0.1,0,0.1,0.1,0.2
					c0.1,0.1,0.1,0.1,0.2,0.1h3c0.1,0,0.1,0,0.2-0.1c0.1-0.1,0.1-0.1,0.1-0.2v-7.4c0-0.2,0.1-0.3,0.3-0.3h2.1
					C167.5,96.9,167.6,96.9,167.7,97z"/>
				<path class="st0" d="M178.1,97c0.1,0.1,0.1,0.1,0.1,0.2v1.9c0,0.1,0,0.1-0.1,0.2c-0.1,0.1-0.1,0.1-0.2,0.1h-5.1c0,0-0.1,0-0.1,0
					c0,0,0,0,0,0v1.7c0,0,0,0.1,0.1,0.1h4.3c0.1,0,0.1,0,0.2,0.1c0.1,0.1,0.1,0.1,0.1,0.2v1.5c0,0.1,0,0.1-0.1,0.2
					c0,0.1-0.1,0.1-0.2,0.1h-4.3c0,0-0.1,0-0.1,0.1v1.7c0,0,0,0.1,0,0.1c0,0,0,0,0,0h5.1c0.2,0,0.3,0.1,0.3,0.3v1.9
					c0,0.2-0.1,0.3-0.3,0.3h-7.5c-0.1,0-0.3-0.1-0.3-0.2c0,0,0,0,0,0c0,0,0-0.1,0-0.1v-10c0-0.2,0.1-0.3,0.3-0.3h7.5
					C178,96.9,178.1,96.9,178.1,97z"/>
				<path class="st0" d="M194.3,96.9c0.1,0,0.3,0.1,0.3,0.3c0,0,0,0,0,0v10c0,0.2-0.1,0.3-0.3,0.3c0,0,0,0,0,0h-2.1
					c-0.2,0-0.3-0.1-0.3-0.3l0,0v-3.5c0-0.1-0.1-0.3-0.2-0.3c0,0,0,0,0,0h-3c-0.1,0-0.2,0-0.2,0.1c-0.1,0-0.1,0.1-0.1,0.2v3.5
					c0,0.1-0.1,0.3-0.2,0.3c0,0,0,0-0.1,0H186c-0.1,0-0.3-0.1-0.3-0.2c0,0,0,0,0-0.1v-10c0-0.1,0.1-0.3,0.2-0.3h2.2
					c0.1,0,0.3,0.1,0.3,0.2c0,0,0,0,0,0.1v3.4c0,0.1,0.1,0.3,0.2,0.3h3.1c0.1,0,0.1,0,0.2-0.1c0.1-0.1,0.1-0.1,0.1-0.2v-3.4
					c0-0.2,0.1-0.3,0.3-0.3L194.3,96.9L194.3,96.9z"/>
				<path class="st0" d="M204.1,96.9c0.2,0,0.5,0,0.7,0.1c0.4,0.2,0.8,0.5,0.9,0.9c0.1,0.2,0.1,0.4,0.1,0.7v8.5
					c0,0.1-0.1,0.3-0.3,0.3c0,0,0,0,0,0h-2.1c-0.2,0-0.3-0.1-0.3-0.3l0,0v-2.7c0-0.1,0-0.1-0.1-0.2c0-0.1-0.1-0.1-0.2-0.1h-3
					c-0.2,0-0.3,0.1-0.3,0.3c0,0,0,0,0,0l0,0v2.7c0,0.1-0.1,0.3-0.2,0.3h-2.2c-0.1,0-0.3-0.1-0.3-0.2c0,0,0,0,0,0v-8.6
					c0-0.2,0-0.5,0.1-0.7c0.1-0.2,0.2-0.4,0.4-0.6c0.2-0.2,0.4-0.3,0.6-0.4c0.2-0.1,0.4-0.1,0.7-0.1L204.1,96.9z M203.2,101.9v-2.7
					h-3.5v2.7L203.2,101.9z"/>
				<path class="st0" d="M210.9,99.5c-0.1,0.1-0.1,0.1-0.1,0.2v4.9c0,0.1,0,0.1,0.1,0.2c0.1,0.1,0.1,0.1,0.2,0.1h4.8
					c0.1,0,0.3,0.1,0.3,0.3c0,0,0,0,0,0v2c0,0.1-0.1,0.3-0.3,0.3c0,0,0,0,0,0h-6c-0.2,0-0.5,0-0.7-0.1c-0.2-0.1-0.4-0.2-0.6-0.4
					c-0.3-0.3-0.5-0.8-0.5-1.3v-7c0-0.2,0-0.5,0.1-0.7c0.1-0.2,0.2-0.4,0.4-0.6c0.2-0.2,0.4-0.3,0.6-0.4c0.2-0.1,0.4-0.1,0.7-0.1h6
					c0.2,0,0.3,0.1,0.3,0.3v2c0,0.2-0.1,0.3-0.3,0.3h-4.9C211,99.4,211,99.5,210.9,99.5z"/>
				<path class="st0" d="M224.6,101.3c0,0,0,0.1,0,0.1l3.5,5.8c0,0.1,0,0.1,0,0.2c0,0.1-0.1,0.1-0.2,0.1h-2.5c-0.1,0-0.2,0-0.2-0.1
					c-0.1,0-0.1-0.1-0.2-0.2l-2.3-4.1c0-0.1-0.1-0.1-0.1,0l-1.2,1.4c-0.1,0.1-0.1,0.1-0.1,0.2c0,0.1-0.1,0.2-0.1,0.3v2.2
					c0,0.1-0.1,0.3-0.2,0.3H219c-0.1,0-0.3-0.1-0.3-0.2c0,0,0-0.1,0-0.1v-10c0-0.1,0.1-0.3,0.2-0.3h2.2c0.1,0,0.3,0.1,0.3,0.2
					c0,0,0,0,0,0.1v4.5l3.9-4.6c0-0.1,0.1-0.1,0.2-0.2c0.1,0,0.2-0.1,0.3-0.1h2.5c0.1,0,0.1,0,0.1,0.1c0,0.1,0,0.1-0.1,0.2
					L224.6,101.3z"/>
				<path class="st0" d="M232.8,107.2c0,0.1-0.1,0.3-0.2,0.3c0,0,0,0,0,0h-2.1c-0.1,0-0.3-0.1-0.3-0.2c0,0,0,0,0,0V97.2
					c0-0.1,0.1-0.3,0.2-0.3h2.2c0.1,0,0.3,0.1,0.3,0.2c0,0,0,0,0,0.1L232.8,107.2z"/>
				<path class="st0" d="M242.9,97c0.4,0.2,0.8,0.5,0.9,0.9c0.1,0.2,0.1,0.4,0.1,0.7v8.5c0,0.1-0.1,0.3-0.3,0.3c0,0,0,0,0,0h-2.1
					c-0.1,0-0.1,0-0.2-0.1c-0.1-0.1-0.1-0.1-0.1-0.2v-7.4c0-0.1,0-0.2-0.1-0.2c-0.1-0.1-0.1-0.1-0.2-0.1h-3c-0.1,0-0.1,0-0.2,0.1
					c-0.1,0.1-0.1,0.1-0.1,0.2v7.4c0,0.1-0.1,0.3-0.2,0.3h-2.2c-0.1,0-0.3-0.1-0.3-0.2c0,0,0-0.1,0-0.1v-10c0-0.1,0.1-0.3,0.2-0.3
					h6.9C242.5,96.9,242.7,96.9,242.9,97z"/>
				<path class="st0" d="M255.2,101.8c0.1,0.1,0.1,0.1,0.1,0.2v3.7c0,0.2-0.1,0.5-0.1,0.7c-0.1,0.2-0.2,0.4-0.4,0.6
					c-0.2,0.2-0.4,0.3-0.6,0.4c-0.2,0.1-0.4,0.1-0.7,0.1h-5.3c-0.2,0-0.5,0-0.7-0.1c-0.7-0.3-1.1-0.9-1.1-1.6v-7
					c0-0.2,0.1-0.5,0.2-0.7c0.1-0.2,0.2-0.4,0.4-0.6c0.2-0.2,0.4-0.3,0.6-0.4c0.2-0.1,0.4-0.1,0.7-0.1h6.2c0.2,0,0.3,0.1,0.3,0.3
					c0,0,0,0,0,0v2c0,0.2-0.1,0.3-0.3,0.3l0,0h-5.1c-0.1,0-0.1,0-0.2,0.1c-0.1,0-0.1,0.1-0.1,0.2v4.9c0,0.1,0,0.2,0.1,0.2
					c0.1,0.1,0.1,0.1,0.2,0.1h3c0.1,0,0.3-0.1,0.3-0.2c0,0,0,0,0,0V102c0-0.1,0.1-0.3,0.3-0.3c0,0,0,0,0,0h2.1
					C255,101.7,255.1,101.7,255.2,101.8z"/>
			</g>
			<g id="M">
				<path class="st1" d="M118.9,24.2c2.7,1.1,4.8,3.2,5.9,5.9c0.6,1.4,0.9,2.8,0.9,4.3v55.4c0,1-0.8,1.8-1.8,1.8h-13.3
					c-0.5,0-0.9-0.2-1.2-0.5c-0.3-0.4-0.5-0.8-0.5-1.3V39.5H98.3v50.4c0,0.5-0.2,0.9-0.5,1.3c-0.3,0.3-0.8,0.5-1.2,0.5h-12
					c-1,0-1.8-0.8-1.8-1.8c0,0,0,0,0,0V39.5H72.1v50.4c0.1,0.9-0.5,1.7-1.4,1.8c-0.1,0-0.3,0-0.5,0H57.1c-0.9,0.1-1.7-0.5-1.8-1.4
					c0-0.1,0-0.3,0-0.5V25.1c-0.1-0.9,0.5-1.7,1.4-1.8c0.1,0,0.3,0,0.5,0h57.5C116.1,23.3,117.6,23.6,118.9,24.2z"/>
			</g>
			<g id="L">
				<path class="st2" d="M183.6,75c0.5,0,1,0.2,1.3,0.5c0.3,0.4,0.5,0.8,0.5,1.3v12.9c0,0.5-0.2,0.9-0.5,1.3
					c-0.3,0.4-0.8,0.6-1.3,0.5h-45.4c-1.3,0-1.9-0.6-1.9-1.9V25.1c0-1.2,0.6-1.9,1.9-1.9h13.9c1.3,0,1.9,0.6,1.9,1.9v48.1
					c0,0.5,0.2,1,0.6,1.3c0.4,0.3,0.9,0.5,1.4,0.5L183.6,75z"/>
			</g>
			<g id="H">
				<path class="st3" d="M253.3,23.3c0.5,0,1,0.2,1.4,0.5c0.4,0.3,0.6,0.8,0.6,1.3V90c0,0.5-0.2,1-0.6,1.3c-0.4,0.4-0.9,0.6-1.4,0.5
					h-14.1c-0.5,0-1-0.2-1.4-0.5c-0.4-0.3-0.6-0.8-0.6-1.3V67.4c0-0.5-0.2-1-0.5-1.3c-0.4-0.3-0.8-0.5-1.3-0.5h-19.8
					c-0.5,0-1,0.2-1.4,0.5c-0.4,0.3-0.6,0.8-0.6,1.3V90c0,1.2-0.6,1.9-1.9,1.9h-14c-1.3,0-1.9-0.6-1.9-1.9V25.1
					c0-1.2,0.6-1.9,1.9-1.9h14c1.3,0,1.9,0.6,1.9,1.9v22c0,1.2,0.6,1.9,1.9,1.9h19.8c0.5,0,1-0.2,1.3-0.5c0.3-0.3,0.5-0.8,0.5-1.3
					v-22c0-0.5,0.2-1,0.6-1.3c0.4-0.3,0.8-0.5,1.3-0.5H253.3z"/>
			</g>
		</g>
	</g>
</g>
</svg>
