<svg width="320" height="96" viewBox="0 0 320 96" fill="none" xmlns="http://www.w3.org/2000/svg">
<path d="M12.9528 42.1339C18.938 42.1339 21.7265 39.3454 21.3184 33.7683L20.2982 17.7513C20.1622 14.9628 20.5022 12.4803 21.3184 10.3039C22.1346 8.12752 23.3588 6.29118 24.9911 4.7949C26.6914 3.2306 28.6978 2.04038 31.0103 1.22423C33.3907 0.408077 36.0432 0 38.9678 0H45.9051V11.7322H40.7021C38.2536 11.7322 36.3493 12.3103 34.989 13.4665C33.6287 14.6227 33.0166 16.4591 33.1527 18.9756L34.1729 34.9926C34.3769 38.8013 33.2547 41.8278 30.8062 44.0723C28.4258 46.3167 25.2292 47.5069 21.2164 47.6429V48.153C25.2972 48.2891 28.5278 49.5473 30.9082 51.9277C33.2887 54.2402 34.3769 57.3007 34.1729 61.1095L33.1527 77.0244C33.0166 79.2689 33.6287 81.0372 34.989 82.3294C36.4173 83.5537 38.3216 84.1658 40.7021 84.1658H45.9051V96H38.9678C36.1112 96 33.4927 95.5579 31.1123 94.6738C28.7318 93.8576 26.6914 92.6674 24.9911 91.1031C23.3588 89.5388 22.1006 87.6344 21.2164 85.39C20.4002 83.1456 20.0942 80.6291 20.2982 77.8406L21.3184 62.3337C21.5224 59.5452 20.9443 57.4368 19.5841 56.0085C18.2918 54.5802 16.0814 53.8661 12.9528 53.8661H0.8125V42.1339H12.9528Z" fill="#F16D22"/>
<path d="M115.657 79.4677H122.799L124.689 84.9144H127.329L120.687 66.0176H117.964L111.211 84.9144H113.768L115.657 79.4677ZM122.104 77.3557H116.38L118.492 71.1586C118.853 70.1304 119.075 69.3801 119.214 68.9077H119.242C119.353 69.3801 119.603 70.1582 119.965 71.1308L122.104 77.3557Z" fill="white"/>
<path d="M133.297 84.9144V76.2441H142.356V74.0765H133.297V68.1851H143.329V66.0176H130.851V84.9144H133.297Z" fill="white"/>
<path d="M149.741 76.8277H153.715L158.884 84.9144H161.941L156.605 76.7165C159.357 76.2719 161.385 74.4656 161.385 71.4365C161.385 69.0466 160.218 67.3515 158.301 66.5733C157.411 66.2399 156.3 66.0176 154.41 66.0176H147.296V84.9144H149.741V76.8277ZM149.741 74.6601V68.1851H153.965C155.744 68.1851 156.494 68.3519 157.189 68.6298C158.245 69.1022 158.856 70.1026 158.856 71.4087C158.856 72.7426 158.301 73.6875 157.245 74.1877C156.522 74.4933 155.744 74.6601 153.993 74.6601H149.741Z" fill="white"/>
<path d="M168.439 66.0176H165.993V84.9144H168.439V66.0176Z" fill="white"/>
<path d="M186.782 79.4955C185.81 81.7742 184.003 83.1081 181.558 83.1081C177.806 83.1081 175.5 80.079 175.5 75.466C175.5 70.8251 177.806 67.8239 181.558 67.8239C183.975 67.8239 185.782 69.1022 186.754 71.4087L188.839 69.9915C187.421 67.3237 184.893 65.6841 181.558 65.6841C176.25 65.6841 172.943 69.7136 172.943 75.466C172.943 81.6352 176.556 85.2479 181.558 85.2479C185.032 85.2479 187.644 83.4971 189.005 80.607L186.782 79.4955Z" fill="white"/>
<path d="M195.275 79.4677H202.417L204.307 84.9144H206.947L200.305 66.0176H197.582L190.829 84.9144H193.386L195.275 79.4677ZM201.723 77.3557H195.998L198.11 71.1586C198.471 70.1304 198.694 69.3801 198.832 68.9077H198.86C198.971 69.3801 199.222 70.1582 199.583 71.1308L201.723 77.3557Z" fill="white"/>
<path d="M66.1172 46.351C66.1172 43.1353 67.2848 40.5972 69.62 38.7366C71.9553 36.8761 75.1365 35.9478 79.1638 35.9516H86.003V33.1436C86.0101 32.6124 85.8853 32.0878 85.6398 31.6168C85.3942 31.1458 85.0356 30.743 84.5961 30.4447C83.4643 29.7008 82.1242 29.3386 80.7717 29.4111C79.5461 29.3675 78.3294 29.6341 77.2344 30.1863C76.809 30.3982 76.4299 30.6927 76.1194 31.0525C75.8088 31.4123 75.573 31.8304 75.4256 32.2822H67.0934C67.3022 30.8834 67.8009 29.5436 68.5577 28.3487C69.3166 27.1674 70.3046 26.1501 71.4633 25.357C72.726 24.4989 74.1235 23.8584 75.5978 23.462C77.2822 23.0065 79.0212 22.7843 80.766 22.8016C82.6792 22.7797 84.5858 23.031 86.4279 23.5481C88.0021 23.991 89.4841 24.7125 90.8036 25.6785C91.9733 26.5374 92.9349 27.6481 93.6174 28.9287C94.2995 30.2399 94.6449 31.7002 94.6223 33.178V54.999H86.405V48.6824H85.8996C85.7953 49.6948 85.4709 50.6722 84.9491 51.5461C84.4274 52.42 83.7209 53.1692 82.8792 53.7414C81.1373 54.9626 78.9246 55.5751 76.241 55.579C73.1401 55.579 70.6785 54.754 68.8563 53.104C67.0341 51.454 66.121 49.203 66.1172 46.351ZM79.7381 48.9408C81.3427 49.0096 82.9264 48.5563 84.2516 47.6488C84.7942 47.2852 85.2382 46.7927 85.5438 46.2155C85.8495 45.6383 86.0072 44.9943 86.003 44.3412V41.1255H79.1638C78.0045 41.0652 76.8619 41.4217 75.9424 42.1304C75.5332 42.4833 75.2114 42.9262 75.0022 43.4243C74.793 43.9225 74.702 44.4623 74.7365 45.0015C74.7124 45.5528 74.8165 46.1022 75.0407 46.6064C75.2649 47.1105 75.603 47.5558 76.0285 47.9072C77.1062 48.6765 78.4167 49.0498 79.7381 48.9638V48.9408Z" fill="white"/>
<path d="M117.383 11.8162V44.0537C117.337 44.48 117.387 44.9112 117.529 45.3157C117.671 45.7202 117.902 46.0876 118.205 46.3911C118.508 46.6946 118.875 46.9263 119.28 47.0694C119.684 47.2124 120.115 47.2631 120.541 47.2178H130.028V54.9757H119.691C116.28 54.9757 113.601 54.0071 111.652 52.0701C109.703 50.133 108.735 47.4532 108.746 44.0308V19.5741H98.9844V11.8162H117.383Z" fill="white"/>
<path d="M150.432 11.8162V44.0537C150.386 44.4806 150.436 44.9123 150.579 45.3173C150.721 45.7222 150.953 46.09 151.257 46.3936C151.56 46.6971 151.928 46.9288 152.333 47.0714C152.738 47.2141 153.17 47.2641 153.597 47.2178H163.077V54.9757H152.741C149.33 54.9757 146.65 54.0071 144.702 52.0701C142.753 50.133 141.796 47.4532 141.83 44.0308V19.5741H132.068V11.8162H150.432Z" fill="white"/>
<path d="M193.537 47.1834H204.763V31.145H195.001V23.3814H212.803V47.1834H221.709V54.9988H193.572L193.537 47.1834ZM203.041 14.1304C203.016 13.586 203.11 13.0428 203.314 12.5375C203.518 12.0322 203.828 11.5767 204.224 11.2018C205.085 10.4446 206.208 10.0531 207.353 10.1108H209.076C210.223 10.0541 211.347 10.4453 212.211 11.2018C212.606 11.5772 212.915 12.0329 213.118 12.5382C213.321 13.0435 213.413 13.5865 213.388 14.1304C213.411 14.6771 213.316 15.2223 213.109 15.7287C212.902 16.2351 212.588 16.6909 212.188 17.0648C211.305 17.8281 210.161 18.2192 208.996 18.1558H207.33C206.181 18.2165 205.053 17.8249 204.189 17.0648C203.799 16.686 203.495 16.2282 203.297 15.722C203.099 15.2159 203.012 14.6732 203.041 14.1304Z" fill="white"/>
<path d="M226.643 54.9988V23.3814H234.802V28.8424H235.377C235.469 27.9652 235.742 27.1167 236.178 26.3499C236.613 25.5831 237.203 24.9146 237.909 24.3863C239.326 23.3297 241.184 22.8033 243.485 22.8071C246.701 22.8071 249.239 23.8599 251.099 25.9654C252.96 28.071 253.888 30.9421 253.884 34.579V54.9815H245.271V35.4403C245.311 34.7495 245.213 34.0576 244.981 33.4056C244.749 32.7536 244.389 32.1547 243.921 31.6446C242.913 30.756 241.616 30.2657 240.272 30.2657C238.928 30.2657 237.631 30.756 236.623 31.6446C236.153 32.1538 235.791 32.7522 235.557 33.4043C235.323 34.0563 235.223 34.7487 235.262 35.4403V54.9643L226.643 54.9988Z" fill="white"/>
<path d="M274.096 96V84.1658H279.299C281.747 84.1658 283.652 83.5877 285.012 82.4315C286.44 81.2752 287.086 79.4729 286.95 77.0244L285.93 61.0074C285.658 57.1987 286.712 54.1722 289.093 51.9277C291.541 49.6833 294.772 48.4931 298.784 48.3571V47.847C294.704 47.7109 291.473 46.4867 289.093 44.1743C286.712 41.7938 285.658 38.6993 285.93 34.8905L286.95 18.9756C287.086 16.6631 286.44 14.8948 285.012 13.6706C283.584 12.3783 281.679 11.7322 279.299 11.7322H274.096V0H281.135C283.992 0 286.576 0.442083 288.889 1.32625C291.269 2.1424 293.275 3.33262 294.908 4.89692C296.608 6.46121 297.866 8.36557 298.682 10.61C299.567 12.7864 299.907 15.2689 299.703 18.0574L298.682 33.6663C298.478 36.4548 299.022 38.5632 300.315 39.9915C301.675 41.3518 303.919 42.0319 307.048 42.0319H319.188V53.7641H307.048C301.063 53.7641 298.274 56.5866 298.682 62.2317L299.703 78.1467C299.839 80.8672 299.499 83.3156 298.682 85.492C297.866 87.7365 296.642 89.6408 295.01 91.2051C293.377 92.7694 291.371 93.9596 288.991 94.7758C286.61 95.5919 283.992 96 281.135 96H274.096Z" fill="#F16D22"/>
</svg>
