<svg width="40" height="40" viewBox="0 0 40 40" fill="none" xmlns="http://www.w3.org/2000/svg">
<rect width="40" height="40" rx="7.5" fill="#06F395"/>
<path d="M15.3382 21.9359C15.3185 21.4707 15.4097 21.0075 15.6043 20.5845C15.7989 20.1616 16.0913 19.791 16.4575 19.5033C17.3415 18.865 18.4183 18.5506 19.5068 18.6129H21.6906V17.7125C21.6924 17.5428 21.6519 17.3753 21.5729 17.2251C21.4939 17.0749 21.3788 16.9467 21.238 16.8519C20.8746 16.6082 20.441 16.4911 20.0043 16.5187C19.613 16.5053 19.2246 16.5908 18.8751 16.7674C18.7388 16.8349 18.6175 16.9291 18.5183 17.0445C18.4192 17.1599 18.3443 17.294 18.298 17.4389H15.6516C15.7181 16.9914 15.8774 16.5628 16.1192 16.1804C16.3613 15.8039 16.6758 15.4792 17.0445 15.2253C17.4491 14.9514 17.8962 14.7464 18.3677 14.6184C18.9014 14.4755 19.4518 14.4053 20.0043 14.4095C20.6145 14.4025 21.2226 14.4829 21.81 14.6482C22.3125 14.7865 22.7859 15.014 23.2079 15.3198C23.5804 15.5929 23.8865 15.9466 24.1033 16.3545C24.322 16.7734 24.4331 17.24 24.4266 17.7125V24.6768H21.815V22.6671H21.6508C21.6176 22.9901 21.5146 23.302 21.3488 23.5812C21.183 23.8603 20.9585 24.1001 20.6908 24.2838C20.0606 24.6948 19.3184 24.8999 18.5667 24.8708C17.7087 24.9167 16.8655 24.6338 16.2088 24.0799C15.9172 23.8068 15.6883 23.4736 15.538 23.1035C15.3877 22.7333 15.3196 22.3349 15.3382 21.9359ZM19.6909 22.7567C20.2021 22.778 20.7065 22.6331 21.1285 22.3438C21.3024 22.2272 21.4447 22.0695 21.5427 21.8846C21.6408 21.6998 21.6916 21.4935 21.6906 21.2842V20.2694H19.5068C19.1366 20.2491 18.7713 20.3621 18.4771 20.5878C18.3547 20.7078 18.258 20.8515 18.1931 21.0102C18.1282 21.1689 18.0964 21.3392 18.0997 21.5106C18.1029 21.682 18.1412 21.851 18.2121 22.0071C18.283 22.1632 18.385 22.3031 18.5119 22.4184C18.853 22.666 19.2704 22.7858 19.6909 22.7567Z" fill="#121212"/>
<path d="M7.16033 18.8254C8.2398 18.8254 8.73725 18.328 8.65268 17.3331L8.46862 14.4528C8.43631 13.9972 8.49898 13.5398 8.65268 13.1097C8.79382 12.7304 9.02216 12.3896 9.31926 12.1148C9.63493 11.8339 10.0037 11.6191 10.4037 11.4831C10.8626 11.3322 11.3433 11.2582 11.8264 11.2642H13.0899V13.3734H12.1547C11.7849 13.3503 11.4193 13.4616 11.125 13.6868C10.995 13.8145 10.8974 13.9714 10.8403 14.1444C10.7832 14.3175 10.7682 14.5017 10.7967 14.6817L10.9758 17.5619C11.0075 17.8617 10.9708 18.1648 10.8682 18.4483C10.7657 18.7319 10.6 18.9884 10.3838 19.1985C9.90333 19.618 9.2855 19.8463 8.6477 19.8402V19.9297C9.29322 19.9192 9.91757 20.16 10.3888 20.6013C10.603 20.8168 10.7668 21.0772 10.8683 21.3636C10.9698 21.6501 11.0065 21.9555 10.9758 22.2578L10.7967 25.1181C10.774 25.2912 10.7928 25.4672 10.8516 25.6316C10.9105 25.7959 11.0076 25.9439 11.1349 26.0633C11.4123 26.2971 11.7675 26.4179 12.1298 26.4016H13.0899V28.5306H11.8413C11.3607 28.5368 10.8827 28.4594 10.4286 28.3018C10.0229 28.1621 9.65036 27.9402 9.33418 27.6502C9.03131 27.3665 8.79953 27.0154 8.65765 26.6254C8.49502 26.1837 8.43547 25.7107 8.48355 25.2425L8.6676 22.4518C8.69883 22.2513 8.68799 22.0464 8.63574 21.8503C8.5835 21.6542 8.49101 21.4711 8.36416 21.3127C8.19995 21.1705 8.00855 21.0633 7.8016 20.9974C7.59465 20.9316 7.37648 20.9085 7.16033 20.9296H6.25V18.8254H7.16033Z" fill="#121212"/>
<path d="M27.103 28.5168V26.3878H28.0382C28.4103 26.4107 28.7785 26.3014 29.0779 26.0793C29.2118 25.9541 29.3127 25.7978 29.3717 25.6243C29.4307 25.4507 29.446 25.2653 29.4162 25.0844L29.2321 22.2042C29.1935 21.906 29.2256 21.603 29.3258 21.3195C29.4261 21.036 29.5916 20.7802 29.8091 20.5726C30.2866 20.1481 30.9065 19.919 31.5452 19.9309V19.8364C30.898 19.8483 30.2716 19.6073 29.7992 19.1648C29.5846 18.9502 29.422 18.6894 29.3237 18.4023C29.2254 18.1152 29.1941 17.8094 29.2321 17.5083L29.4162 14.643C29.438 14.4661 29.4179 14.2865 29.3574 14.1188C29.2969 13.9512 29.1977 13.8001 29.068 13.6779C28.7781 13.4423 28.4114 13.3218 28.0382 13.3397H27.103V11.2504H28.3715C28.8489 11.2438 29.3238 11.3212 29.7743 11.4792C30.1755 11.6191 30.5431 11.8411 30.8538 12.1309C31.156 12.4142 31.3892 12.763 31.5353 13.1506C31.6924 13.5816 31.7518 14.042 31.7094 14.4987L31.5253 17.2844C31.4934 17.4834 31.5039 17.6869 31.5562 17.8815C31.6085 18.0762 31.7014 18.2575 31.8288 18.4137C31.9932 18.5551 32.1848 18.6616 32.3918 18.7266C32.5988 18.7916 32.8168 18.8138 33.0326 18.7917H33.933V20.9009H33.0326C31.9548 20.9009 31.4574 21.4083 31.5403 22.4231L31.7243 25.2884C31.7553 25.7391 31.6926 26.1913 31.5403 26.6166C31.4014 27.003 31.1749 27.352 30.8787 27.6364C30.5702 27.9268 30.2017 28.1459 29.7992 28.2781C29.3438 28.4295 28.8663 28.5035 28.3864 28.4969L27.103 28.5168Z" fill="#121212"/>
</svg>
