<svg width="147" height="30" viewBox="0 0 147 30" fill="none" xmlns="http://www.w3.org/2000/svg">
<path d="M21.0566 20.917C21.0566 19.1339 21.7041 17.7265 22.9989 16.6949C24.2938 15.6632 26.0578 15.1485 28.2909 15.1506H32.0832V13.5936C32.0871 13.2991 32.0179 13.0082 31.8818 12.747C31.7456 12.4858 31.5468 12.2625 31.3031 12.097C30.6755 11.6846 29.9324 11.4837 29.1825 11.5239C28.5029 11.4997 27.8282 11.6476 27.2211 11.9538C26.9851 12.0713 26.775 12.2346 26.6028 12.4341C26.4306 12.6336 26.2998 12.8654 26.2181 13.116H21.5979C21.7137 12.3403 21.9903 11.5974 22.4099 10.9348C22.8307 10.2798 23.3785 9.71571 24.021 9.27593C24.7212 8.80015 25.4961 8.44498 26.3136 8.22518C27.2476 7.9726 28.2118 7.84939 29.1793 7.85901C30.2402 7.84684 31.2973 7.98623 32.3188 8.27294C33.1917 8.51851 34.0134 8.91861 34.7451 9.45424C35.3936 9.93046 35.9269 10.5464 36.3053 11.2564C36.6835 11.9835 36.875 12.7932 36.8625 13.6127V25.7123H32.3061V22.2097H32.0259C31.968 22.7711 31.7881 23.3131 31.4988 23.7976C31.2095 24.2822 30.8178 24.6977 30.351 25.0149C29.3852 25.6921 28.1582 26.0317 26.6702 26.0338C24.9508 26.0338 23.5859 25.5764 22.5755 24.6615C21.565 23.7466 21.0588 22.4984 21.0566 20.917ZM28.6093 22.353C29.4991 22.3912 30.3772 22.1398 31.112 21.6366C31.4129 21.435 31.6591 21.1619 31.8286 20.8419C31.998 20.5218 32.0855 20.1647 32.0832 19.8026V18.0195H28.2909C27.6481 17.9861 27.0145 18.1837 26.5046 18.5767C26.2778 18.7724 26.0993 19.018 25.9833 19.2942C25.8673 19.5704 25.8169 19.8697 25.836 20.1687C25.8226 20.4744 25.8803 20.779 26.0047 21.0586C26.129 21.3382 26.3165 21.5851 26.5524 21.7799C27.15 22.2065 27.8766 22.4135 28.6093 22.3658V22.353Z" fill="white"/>
<path d="M49.4841 1.76782V19.6434C49.4585 19.8797 49.4862 20.1188 49.5651 20.3431C49.644 20.5674 49.7722 20.7711 49.9401 20.9394C50.1081 21.1077 50.3116 21.2362 50.5357 21.3155C50.7599 21.3948 50.9989 21.423 51.2353 21.3978H56.4955V25.6995H50.7641C48.8727 25.6995 47.3868 25.1625 46.3064 24.0884C45.2259 23.0143 44.6888 21.5283 44.6952 19.6306V6.06954H39.2822V1.76782H49.4841Z" fill="white"/>
<path d="M67.8087 1.76782V19.6434C67.7831 19.88 67.8108 20.1194 67.8899 20.344C67.969 20.5685 68.0974 20.7724 68.2657 20.9408C68.4341 21.1091 68.638 21.2376 68.8625 21.3166C69.0871 21.3957 69.3265 21.4235 69.5632 21.3978H74.8201V25.6995H69.0887C67.1974 25.6995 65.7115 25.1625 64.631 24.0884C63.5505 23.0143 63.0198 21.5283 63.0389 19.6306V6.06954H57.626V1.76782H67.8087Z" fill="white"/>
<path d="M91.7119 21.3787H97.9368V12.4855H92.5239V8.18064H102.395V21.3787H107.333V25.7123H91.731L91.7119 21.3787ZM96.9816 3.05105C96.9681 2.74918 97.0197 2.44794 97.1329 2.16776C97.2461 1.88758 97.4182 1.63501 97.6375 1.42716C98.1151 1.00725 98.7377 0.790209 99.3729 0.822183H100.328C100.964 0.790723 101.587 1.00765 102.067 1.42716C102.285 1.63529 102.457 1.88799 102.569 2.16816C102.682 2.44833 102.733 2.74942 102.719 3.05105C102.732 3.35417 102.679 3.65647 102.564 3.93727C102.449 4.21808 102.275 4.47079 102.054 4.67813C101.564 5.10136 100.93 5.31823 100.284 5.28311H99.3601C98.7228 5.31677 98.0976 5.09961 97.6184 4.67813C97.4023 4.46809 97.2336 4.21422 97.1238 3.93357C97.0139 3.65292 96.9654 3.352 96.9816 3.05105Z" fill="white"/>
<path d="M110.068 25.7123V8.1806H114.593V11.2087H114.911C114.963 10.7223 115.114 10.2518 115.355 9.82662C115.597 9.40143 115.924 9.03075 116.316 8.73782C117.101 8.15195 118.132 7.86007 119.407 7.86219C121.19 7.86219 122.598 8.44595 123.629 9.61345C124.661 10.781 125.176 12.373 125.174 14.3896V25.7027H120.398V14.8672C120.42 14.4842 120.365 14.1005 120.237 13.739C120.108 13.3774 119.909 13.0454 119.649 12.7625C119.09 12.2698 118.371 11.9979 117.626 11.9979C116.881 11.9979 116.161 12.2698 115.602 12.7625C115.342 13.0449 115.141 13.3767 115.011 13.7382C114.882 14.0998 114.826 14.4837 114.848 14.8672V25.6932L110.068 25.7123Z" fill="white"/>
<path d="M3.79545 13.1606C5.66345 13.1606 6.53377 12.2903 6.40641 10.5496L6.088 5.54423C6.03474 4.75479 6.14309 3.96278 6.40641 3.21665C6.65253 2.55803 7.05202 1.96753 7.57179 1.49405C8.11551 1.00221 8.75513 0.628197 9.45041 0.395537C10.2468 0.130735 11.0821 0.00157449 11.9213 0.0134451H14.0896V3.66561H12.4626C11.8224 3.62502 11.1891 3.81727 10.6795 4.2069C10.2528 4.56671 10.0618 5.14303 10.1031 5.92632L10.4216 10.9317C10.4782 11.4523 10.4144 11.979 10.235 12.4709C10.0555 12.9629 9.76528 13.4069 9.38673 13.7688C8.55491 14.4997 7.48185 14.8967 6.37457 14.8832V15.0424C7.64821 15.0849 8.65757 15.4722 9.40265 16.2046C9.77587 16.5797 10.0609 17.0332 10.2372 17.5322C10.4134 18.0311 10.4764 18.5631 10.4216 19.0894L10.1031 24.0629C10.0671 24.3618 10.1017 24.665 10.2039 24.9481C10.3062 25.2312 10.4735 25.4864 10.6922 25.6932C11.1845 26.1079 11.8167 26.3186 12.4594 26.2823H14.0865V29.979H11.9213C11.0861 29.9894 10.2555 29.8547 9.46633 29.581C8.75763 29.3416 8.10687 28.9566 7.55587 28.4506C7.02961 27.9543 6.62531 27.3429 6.37457 26.6644C6.09726 25.9117 5.98857 25.1074 6.05616 24.3081L6.37457 19.4619C6.43825 18.5937 6.26312 17.9357 5.84919 17.4878C5.43526 17.042 4.73794 16.8159 3.76361 16.8159H0V13.1606H3.79545Z" fill="#06F395"/>
<path d="M132.5 29.9885V26.2918H134.124C134.77 26.3307 135.409 26.1389 135.926 25.7505C136.362 25.3907 136.563 24.8271 136.515 24.0629L136.197 19.0575C136.11 17.8667 136.444 16.921 137.2 16.2205C138.032 15.4895 139.105 15.0925 140.212 15.106V14.9468C139.09 14.9647 138.005 14.5483 137.184 13.7846C136.812 13.4093 136.531 12.9548 136.36 12.4553C136.189 11.9557 136.133 11.424 136.197 10.8998L136.515 5.92628C136.554 5.61962 136.52 5.30802 136.415 5.01732C136.31 4.72661 136.137 4.46516 135.91 4.25463C135.409 3.84181 134.772 3.63164 134.124 3.66557H132.5V0.000675222H134.7C135.529 -0.0107944 136.354 0.123937 137.136 0.398688C137.832 0.643198 138.47 1.02792 139.011 1.52904C139.534 2.02198 139.937 2.62743 140.19 3.2994C140.464 4.04714 140.567 4.84681 140.492 5.63972L140.174 10.5178C140.11 11.387 140.285 12.0429 140.699 12.476C141.113 12.909 141.81 13.1128 142.788 13.1128H146.58V16.7936H142.794C140.924 16.7936 140.053 17.6756 140.18 19.4396L140.498 24.4132C140.552 25.1963 140.443 25.9821 140.18 26.7216C139.939 27.3917 139.546 27.9974 139.034 28.492C138.496 28.9968 137.853 29.3773 137.152 29.6064C136.362 29.8688 135.533 29.9979 134.7 29.9885H132.5Z" fill="#06F395"/>
</svg>
