<svg width="21" height="21" viewBox="0 0 21 21" fill="none" xmlns="http://www.w3.org/2000/svg">
<path d="M4.6875 21H0.328125V6.98438H4.6875V21ZM2.53125 5.0625C1.84375 5.0625 1.25 4.8125 0.75 4.3125C0.249998 3.8125 0 3.21875 0 2.53125C0 1.84375 0.249998 1.25 0.75 0.75C1.25 0.249997 1.84375 0 2.53125 0C2.96875 0 3.38281 0.109374 3.77344 0.328125C4.16406 0.546876 4.47656 0.851561 4.71094 1.24219C4.94531 1.63281 5.0625 2.05469 5.0625 2.50781C5.0625 2.96094 4.94531 3.38281 4.71094 3.77344C4.47656 4.16406 4.16406 4.47656 3.77344 4.71094C3.38281 4.94531 2.96875 5.0625 2.53125 5.0625ZM21 21H16.6406V14.1562C16.6406 13.625 16.625 13.1953 16.5938 12.8672C16.5625 12.5391 16.4844 12.1641 16.3594 11.7422C16.2344 11.3203 16.0078 11 15.6797 10.7812C15.3516 10.5625 14.9219 10.4531 14.3906 10.4531C13.3594 10.4531 12.6641 10.7812 12.3047 11.4375C11.9453 12.0938 11.7656 12.9687 11.7656 14.0625V21H7.40625V6.98438H11.625V8.90625H11.6719C11.9844 8.28125 12.5 7.74219 13.2188 7.28906C13.9375 6.83594 14.7969 6.60938 15.7969 6.60938C16.8594 6.60938 17.7422 6.77344 18.4453 7.10156C19.1484 7.42969 19.6797 7.91406 20.0391 8.55469C20.3984 9.19532 20.6484 9.89062 20.7891 10.6406C20.9297 11.3906 21 12.2812 21 13.3125V21Z" fill="white"/>
</svg>
