<svg width="20" height="18" viewBox="0 0 20 18" fill="none" xmlns="http://www.w3.org/2000/svg">
<path d="M4.93945 2.00002C4.93919 2.53046 4.72822 3.03906 4.35296 3.41394C3.9777 3.78883 3.46889 3.99929 2.93845 3.99902C2.40802 3.99876 1.89942 3.78779 1.52453 3.41253C1.14965 3.03727 0.939188 2.52846 0.939453 1.99802C0.939719 1.46759 1.15069 0.958988 1.52595 0.584103C1.90121 0.209218 2.41002 -0.00124153 2.94045 -0.000976312C3.47089 -0.000711096 3.97949 0.210257 4.35437 0.585517C4.72926 0.960777 4.93972 1.46959 4.93945 2.00002ZM4.99945 5.48002H0.999453V18H4.99945V5.48002ZM11.3195 5.48002H7.33945V18H11.2795V11.43C11.2795 7.77002 16.0495 7.43002 16.0495 11.43V18H19.9995V10.07C19.9995 3.90002 12.9395 4.13002 11.2795 7.16002L11.3195 5.48002Z" fill="#1B1F23"/>
<path d="M4.93945 2.00002C4.93919 2.53046 4.72822 3.03906 4.35296 3.41394C3.9777 3.78883 3.46889 3.99929 2.93845 3.99902C2.40802 3.99876 1.89942 3.78779 1.52453 3.41253C1.14965 3.03727 0.939188 2.52846 0.939453 1.99802C0.939719 1.46759 1.15069 0.958988 1.52595 0.584103C1.90121 0.209218 2.41002 -0.00124153 2.94045 -0.000976312C3.47089 -0.000711096 3.97949 0.210257 4.35437 0.585517C4.72926 0.960777 4.93972 1.46959 4.93945 2.00002ZM4.99945 5.48002H0.999453V18H4.99945V5.48002ZM11.3195 5.48002H7.33945V18H11.2795V11.43C11.2795 7.77002 16.0495 7.43002 16.0495 11.43V18H19.9995V10.07C19.9995 3.90002 12.9395 4.13002 11.2795 7.16002L11.3195 5.48002Z" fill="url(#paint0_linear)" fill-opacity="0.1"/>
<defs>
<linearGradient id="paint0_linear" x1="10.4695" y1="-0.000976563" x2="10.4695" y2="18" gradientUnits="userSpaceOnUse">
<stop stop-color="white"/>
<stop offset="1" stop-color="white" stop-opacity="0"/>
</linearGradient>
</defs>
</svg>
