<svg width="270" height="287" viewBox="0 0 270 287" fill="none" xmlns="http://www.w3.org/2000/svg">
<path fill-rule="evenodd" clip-rule="evenodd" d="M192.445 52.8699L195.495 100.711C196.715 117.348 188.377 125.666 170.482 125.666L134.121 125.666L134.121 160.604L170.177 160.604C179.511 160.604 186.191 162.765 190.157 167.025C194.122 171.306 195.8 177.596 195.19 185.894L192.14 232.213C191.492 239.853 192.533 247.54 195.19 254.734C197.592 261.22 201.465 267.063 206.507 271.807C211.786 276.643 218.02 280.323 224.809 282.611C232.369 285.227 240.327 286.514 248.328 286.415L269.07 286.415V251.082L253.483 251.082C247.326 251.43 241.269 249.416 236.553 245.452C234.458 243.475 232.856 241.036 231.876 238.33C230.896 235.624 230.565 232.727 230.91 229.87L233.96 182.333C234.486 177.303 233.882 172.219 232.194 167.45C230.506 162.681 227.775 158.346 224.199 154.761C218.921 149.584 212.257 146.211 204.209 144.641C201.375 144.088 198.368 143.758 195.19 143.653L195.19 142.131C195.207 142.131 195.224 142.131 195.241 142.131C195.575 142.135 195.908 142.135 196.242 142.131C198.931 142.098 201.594 141.813 204.2 141.289C211.511 139.818 218.366 136.46 224.047 131.479C227.673 128.021 230.454 123.776 232.173 119.074C233.892 114.372 234.503 109.339 233.96 104.363L230.91 56.5219C230.513 49.0353 232.344 43.5268 236.431 40.0879C241.313 36.3638 247.38 34.5263 253.513 34.9142L269.101 34.9142L269.101 0.00716618L248.328 0.00716618C240.288 -0.106292 232.286 1.12821 224.657 3.65916C217.996 5.88291 211.868 9.45769 206.659 14.1587C201.68 18.6842 197.853 24.3281 195.495 30.6231C192.972 37.7546 191.934 45.3245 192.445 52.8699ZM265.809 3.29936L248.305 3.29936L248.281 3.29903C240.61 3.19077 232.976 4.36854 225.696 6.78309C219.468 8.8628 213.739 12.205 208.869 16.5991C204.286 20.7655 200.763 25.9586 198.589 31.7497C196.223 38.4498 195.25 45.5603 195.729 52.6478L195.73 52.6604L198.78 100.486C199.426 109.341 197.572 116.68 192.482 121.758C187.44 126.789 179.856 128.959 170.482 128.959L137.413 128.959L137.413 157.312L170.177 157.312C179.897 157.312 187.692 159.545 192.567 164.782L192.572 164.788C197.382 169.98 199.12 177.315 198.474 186.123C198.474 186.127 198.474 186.131 198.473 186.135L195.423 232.461L195.42 232.492C194.813 239.649 195.789 246.852 198.278 253.592C200.5 259.593 204.083 265.001 208.747 269.394C213.683 273.912 219.513 277.352 225.861 279.491L225.873 279.496L225.886 279.5C233.086 281.992 240.666 283.218 248.287 283.123L248.307 283.123L265.778 283.123V254.374L253.573 254.374C246.613 254.743 239.77 252.456 234.435 247.972L234.363 247.912L234.294 247.847C231.824 245.517 229.936 242.642 228.78 239.451C227.636 236.291 227.242 232.908 227.63 229.571L230.679 182.057L230.686 181.991C231.16 177.448 230.616 172.856 229.091 168.548C227.568 164.247 225.105 160.336 221.881 157.099C215.457 150.805 206.642 147.327 195.08 146.943L191.898 146.837L191.898 138.798L195.23 138.839C205.003 138.958 214.474 135.471 221.824 129.049C225.061 125.948 227.543 122.149 229.081 117.944C230.626 113.717 231.176 109.193 230.688 104.72L230.68 104.647L227.623 56.7137L227.622 56.696C227.195 48.6347 229.14 41.9201 234.312 37.5687L234.372 37.518L234.434 37.4703C239.919 33.2865 246.727 31.2121 253.614 31.622L265.809 31.622L265.809 3.29936Z" fill="white"/>
<path d="M98.3061 160.474C80.4673 160.474 72.156 168.778 73.3723 185.386L76.413 233.144C76.9216 240.676 75.8869 248.233 73.3723 255.352C71.0219 261.636 67.207 267.27 62.2433 271.788C57.0509 276.48 50.9429 280.049 44.3032 282.269C36.6977 284.795 28.7214 286.028 20.7073 285.914L0.00013733 285.914L0.000140376 251.068L15.5381 251.068C21.6519 251.456 27.6996 249.621 32.5661 245.904C36.6406 242.471 38.465 236.972 38.0697 229.498L35.029 181.741C34.4877 176.774 35.0974 171.749 36.811 167.055C38.5247 162.361 41.2963 158.124 44.9113 154.672C52.8549 147.697 63.1023 143.909 73.6764 144.039L73.6764 142.52C61.5136 142.115 51.8745 138.418 44.7593 131.431C41.1951 127.852 38.4728 123.525 36.7898 118.764C35.1069 114.003 34.5054 108.928 35.029 103.906L38.0698 56.4523C38.4137 53.6007 38.084 50.7084 37.1071 48.0071C36.1302 45.3058 34.5333 42.8709 32.4445 40.8976C27.7432 36.941 21.7056 34.9302 15.5685 35.2773L0.0305395 35.2773L0.0305426 0.00575606L20.7073 0.00575787C28.683 -0.0930879 36.6153 1.19182 44.1512 3.80331C50.9189 6.08749 57.1335 9.76116 62.3954 14.5883C67.4209 19.3242 71.2819 25.1573 73.6764 31.6316C76.3245 38.8128 77.3625 46.4872 76.7171 54.113L73.6764 100.352C73.0683 108.635 74.7406 114.914 78.6935 119.188C82.6465 123.441 89.3056 125.598 98.6102 125.598L134.551 125.598L134.551 160.474L98.3061 160.474Z" fill="url(#paint0_linear_196_1752)"/>
<defs>
<linearGradient id="paint0_linear_196_1752" x1="67.2757" y1="285.922" x2="67.2757" y2="0.000465358" gradientUnits="userSpaceOnUse">
<stop stop-color="#06F395"/>
<stop offset="1" stop-color="#1F44D2"/>
</linearGradient>
</defs>
</svg>
