<svg width="248" height="329" viewBox="0 0 248 329" fill="none" xmlns="http://www.w3.org/2000/svg">
<path d="M25.7 54.2554H219.877V274.133H122.075H25.7V54.2554Z" fill="url(#paint0_linear_196_869)"/>
<path d="M122.618 52.7678C122.273 63.1228 119.135 71.2235 113.289 77.1784C110.291 80.1632 106.667 82.443 102.679 83.8526C98.6897 85.2629 94.4369 85.7669 90.2288 85.3281L90.209 85.326L90.1891 85.3248L49.0564 82.6891C46.4369 82.3776 43.7808 82.6825 41.2997 83.5798C38.8096 84.4804 36.5652 85.9524 34.7463 87.8778L34.7266 87.8987L34.7081 87.9206C31.1181 92.1862 29.2908 97.6622 29.5983 103.23L29.5983 115.679L1.00482 115.679L1.00489 98.745L1.00474 98.7326C0.920437 91.9303 2.01631 85.165 4.24359 78.7379L4.24618 78.7302C6.18211 72.9943 9.29525 67.7271 13.3856 63.2669C17.3865 59.0228 22.3137 55.762 27.7822 53.7394C33.8734 51.4931 40.3831 50.6127 46.8516 51.1601L46.8609 51.1609L46.8703 51.1615L86.9689 53.7984C86.9702 53.7985 86.9715 53.7986 86.9729 53.7987C94.3122 54.3369 100.075 52.8682 104.059 49.1835L104.06 49.1819C108.047 45.4772 109.94 39.3624 109.94 31.1743L109.94 0.999994L138.191 0.999995L138.191 31.438C138.191 39.3044 140.019 45.2864 143.885 49.1562C147.766 53.0403 153.502 54.6011 160.867 54.0625C160.868 54.0624 160.87 54.0623 160.871 54.0622L202.286 51.4254L202.29 51.4252C208.684 50.9934 215.099 51.8711 221.143 54.0047C226.441 55.9877 231.19 59.2045 235 63.3893C238.977 67.7905 242.002 72.9678 243.883 78.5957C246.039 85.0858 247.091 91.8921 246.994 98.7308L246.994 98.7308L246.994 98.745L246.994 115.706L218.769 115.706L218.769 103.26C219.112 97.7273 217.449 92.2562 214.084 87.852L214.07 87.833L214.054 87.8147C210.799 83.9515 205.664 82.3346 199.007 82.6866L198.997 82.6873L157.573 85.3247L157.55 85.3262L157.528 85.3286C153.372 85.7815 149.168 85.2714 145.241 83.8377C141.321 82.4064 137.781 80.0928 134.895 77.0755C129.018 70.3735 125.826 61.7311 125.935 52.8133L125.947 51.8011L124.935 51.8011L123.617 51.8011L122.65 51.8011L122.618 52.7678Z" fill="#121212" stroke="white" stroke-width="2"/>
<path d="M125.382 275.249C125.727 264.894 128.865 256.793 134.711 250.838C137.709 247.853 141.333 245.573 145.321 244.164C149.31 242.753 153.563 242.249 157.771 242.688L157.791 242.69L157.811 242.692L198.944 245.327C201.563 245.639 204.219 245.334 206.7 244.436C209.19 243.536 211.435 242.064 213.254 240.139L213.273 240.118L213.292 240.096C216.882 235.83 218.709 230.354 218.402 224.786L218.402 212.337L246.995 212.337L246.995 229.271L246.995 229.284C247.08 236.086 245.984 242.851 243.756 249.278L243.754 249.286C241.818 255.022 238.705 260.289 234.614 264.749C230.613 268.994 225.686 272.254 220.218 274.277C214.127 276.523 207.617 277.404 201.148 276.856L201.139 276.855L201.13 276.855L161.031 274.218C161.03 274.218 161.028 274.218 161.027 274.218C153.688 273.679 147.925 275.148 143.941 278.833L143.94 278.834C139.953 282.539 138.06 288.654 138.06 296.842L138.06 327.016L109.809 327.016L109.809 296.578C109.809 288.712 107.981 282.73 104.115 278.86C100.234 274.976 94.4983 273.415 87.1331 273.954C87.1316 273.954 87.1301 273.954 87.1285 273.954L45.7143 276.591L45.7105 276.591C39.3161 277.023 32.901 276.145 26.857 274.012C21.5595 272.029 16.8096 268.812 13.0004 264.627C9.02295 260.226 5.99831 255.049 4.11671 249.421C1.96095 242.931 0.909452 236.124 1.0061 229.286L1.0062 229.286L1.0062 229.271L1.0062 212.311L29.2308 212.311L29.2308 224.757C28.888 230.289 30.5513 235.76 33.9158 240.164L33.9303 240.183L33.9457 240.202C37.2006 244.065 42.3363 245.682 48.9928 245.33L49.0035 245.329L90.4272 242.692L90.4497 242.69L90.472 242.688C94.6276 242.235 98.8316 242.745 102.759 244.179C106.679 245.61 110.219 247.924 113.105 250.941C118.982 257.643 122.174 266.285 122.065 275.203L122.053 276.215L123.065 276.215L124.383 276.215L125.35 276.215L125.382 275.249Z" fill="#121212" stroke="white" stroke-width="2"/>
<defs>
<linearGradient id="paint0_linear_196_869" x1="122.789" y1="54.2554" x2="122.789" y2="274.133" gradientUnits="userSpaceOnUse">
<stop stop-color="#06F395"/>
<stop offset="1" stop-color="#1F44D2"/>
</linearGradient>
</defs>
</svg>
