<svg width="76" height="162" viewBox="0 0 76 162" fill="none" xmlns="http://www.w3.org/2000/svg">
<path d="M34.3512 82.2496C41.0257 82.4725 46.2099 84.4978 50.0124 88.2414C51.9192 90.1633 53.3758 92.4862 54.2765 95.0422C55.1779 97.5999 55.5001 100.327 55.2196 103.025L55.2175 103.044L55.2163 103.064L53.5005 129.924C53.2932 131.685 53.4983 133.471 54.0997 135.139C54.7044 136.816 55.693 138.328 56.9863 139.554L57.0071 139.574L57.029 139.592C59.8723 141.993 63.5221 143.216 67.2342 143.013H74.9828V160.997L64.3037 160.997L64.2913 160.997C59.9023 161.052 55.5371 160.342 51.3901 158.901L51.3824 158.898C47.6942 157.65 44.3071 155.642 41.4387 153.003C38.7148 150.427 36.6217 147.254 35.3232 143.733C33.8779 139.801 33.3113 135.6 33.6636 131.424L33.6644 131.415L33.665 131.406L35.382 105.215C35.3821 105.214 35.3821 105.213 35.3822 105.212C35.7364 100.364 34.7741 96.4902 32.2859 93.7919L32.2843 93.7902C29.7756 91.0826 25.6749 89.8378 20.301 89.8378H1V72.0771H20.4728C25.6415 72.0771 29.6462 70.873 32.2586 68.2548C34.8847 65.6229 35.9085 61.7611 35.5541 56.8946C35.554 56.8929 35.5539 56.8912 35.5537 56.8895L33.8369 29.84L33.8366 29.8361C33.5587 25.7069 34.1235 21.5642 35.4966 17.6612C36.7688 14.2533 38.8321 11.198 41.5155 8.74777C44.3458 6.1823 47.6748 4.2315 51.2934 3.01788C55.4824 1.62214 59.8756 0.941378 64.2896 1.00395L64.2966 1.00405H64.3037H75V18.7475H67.2547C63.571 18.5213 59.9291 19.6333 56.9972 21.88L56.9782 21.8946L56.9599 21.91C54.3301 24.1326 53.2657 27.614 53.4981 32.0215L53.4981 32.0215L53.4987 32.0322L55.2163 59.0913L55.2177 59.1137L55.2201 59.136C55.5093 61.798 55.1836 64.4911 54.268 67.0067C53.3548 69.5158 51.8794 71.7811 49.9556 73.6283C45.6566 77.4077 40.1148 79.4597 34.3969 79.3895L33.3846 79.3771V80.3895V81.2501V82.2173L34.3512 82.2496Z" stroke="white" stroke-width="2"/>
</svg>
