<svg width="76" height="162" viewBox="0 0 76 162" fill="none" xmlns="http://www.w3.org/2000/svg">
<path d="M41.6488 79.7504C34.9743 79.5275 29.7901 77.5022 25.9876 73.7586C24.0808 71.8367 22.6242 69.5138 21.7235 66.9578C20.8221 64.4001 20.4999 61.6734 20.7804 58.9754L20.7825 58.9556L20.7837 58.9357L22.4995 32.076C22.7068 30.3148 22.5018 28.5292 21.9003 26.8609C21.2956 25.1837 20.307 23.6716 19.0137 22.446L18.9929 22.4263L18.971 22.4078C16.1277 20.0074 12.4779 18.7843 8.76579 18.9875L1.01718 18.9875L1.01718 1.003L11.6963 1.00308L11.7087 1.00292C16.0977 0.948359 20.4629 1.65763 24.61 3.09924L24.6176 3.10183C28.3059 4.35049 31.6929 6.35835 34.5613 8.99661C37.2852 11.5729 39.3783 14.7456 40.6768 18.2669C42.1222 22.1986 42.6887 26.4003 42.3364 30.5755L42.3356 30.5849L42.335 30.5942L40.618 56.785C40.618 56.7862 40.6179 56.7873 40.6178 56.7885C40.2636 61.6358 41.2259 65.5098 43.7141 68.2081L43.7157 68.2098C46.2244 70.9174 50.3251 72.1622 55.699 72.1622L75 72.1622L75 89.9229L55.5272 89.9228C50.3585 89.9228 46.3538 91.127 43.7414 93.7452C41.1154 96.3771 40.0915 100.239 40.4459 105.105C40.446 105.107 40.4461 105.109 40.4463 105.11L42.1631 132.16L42.1634 132.164C42.4413 136.293 41.8765 140.436 40.5034 144.339C39.2312 147.747 37.168 150.802 34.4845 153.252C31.6542 155.818 28.3252 157.768 24.7066 158.982C20.5176 160.378 16.1244 161.059 11.7104 160.996L11.7034 160.996L11.6963 160.996L1 160.996L1 143.252L8.74529 143.252C12.429 143.479 16.0709 142.367 19.0028 140.12L19.0218 140.105L19.0401 140.09C21.6699 137.867 22.7343 134.386 22.5019 129.978L22.5019 129.978L22.5013 129.968L20.7838 102.909L20.7823 102.886L20.7799 102.864C20.4907 100.202 20.8165 97.5089 21.732 94.9933C22.6452 92.4842 24.1206 90.2189 26.0444 88.3717C30.3434 84.5923 35.8852 82.5403 41.6031 82.6105L42.6154 82.6229L42.6154 81.6105L42.6154 80.7499L42.6154 79.7827L41.6488 79.7504Z" stroke="white" stroke-width="2"/>
</svg>
