<?xml version="1.0" encoding="utf-8"?>
<!-- Generator: Adobe Illustrator 24.2.0, SVG Export Plug-In . SVG Version: 6.00 Build 0)  -->
<svg version="1.1" id="Layer_1" xmlns="http://www.w3.org/2000/svg" xmlns:xlink="http://www.w3.org/1999/xlink" x="0px" y="0px"
	 viewBox="0 0 1600 1787" style="enable-background:new 0 0 1600 1787;" xml:space="preserve">
<style type="text/css">
	.st0{fill:none;}
	.st1{fill:#F6F6F6;}
</style>
<path class="st0" d="M1119.3,37.8c-0.9,13.7,3.2,27.2,11.6,38.1c7.7,9.1,20,13.2,36.7,12.3l106.9-6.8c11.1-1.2,22.4,0.2,32.9,4
	s20,10,27.7,18.1c15.6,17.8,24.1,40.7,23.8,64.3h3.4c0.9-27.2,9.2-48.8,24.8-64.7c8-8,17.7-14.1,28.3-17.8c10.7-3.8,22-5.1,33.3-3.9
	l106.2,6.8c6.4,0.8,12.9,0,18.9-2.2c6.1-2.2,11.5-5.8,15.9-10.4c8.8-10.5,13.4-24,12.6-37.8V0h-483L1119.3,37.8L1119.3,37.8z"/>
<path class="st0" d="M-3.7,34.8C-4.6,48.4-0.4,62,7.9,72.9c7.7,9.1,20,13.2,36.7,12.3l106.9-6.8c11.1-1.2,22.4,0.2,32.9,4
	s20,10,27.7,18.1c15.6,17.8,24.1,40.7,23.8,64.3h3.4c0.9-27.2,9.2-48.8,24.8-64.7c8-8,17.7-14.1,28.4-17.8c10.7-3.8,22-5.1,33.3-3.9
	L432,85.2c6.4,0.8,12.9,0,18.9-2.2s11.5-5.8,15.9-10.4c8.9-10.5,13.4-24,12.6-37.8V0h-483L-3.7,34.8L-3.7,34.8z"/>
<path class="st0" d="M558.3,46.3c0.2,17.8-2.7,35.6-8.5,52.4c-5.1,15.1-13.3,29-24.1,40.8c-10.6,11.2-23.7,19.9-38.1,25.2
	c-16.1,5.9-33.3,8.2-50.3,6.8l-103.5-6.8c-18.5-1.4-32.6,2.4-42.2,11.2c-9.5,8.8-14.3,23.7-14.3,44.6V299l0,0v81.1
	c0,39.9,18.6,58.5,55.8,55.8l106.9-6.8c16.9-1.1,33.8,1.2,49.7,6.8c14.1,5.3,26.7,13.8,36.8,24.9c10.5,11.6,18.5,25.3,23.5,40.1
	c5.7,17,8.4,34.9,8.2,52.8V600l0,0v34.8c-0.9,13.7,3.2,27.2,11.6,38.1c7.7,9.1,20,13.2,36.7,12.3l106.9-6.8
	c11.1-1.2,22.4,0.2,32.9,4s20,10,27.7,18.1c15.6,17.8,24.1,40.7,23.8,64.3h3.4c0.9-27.2,9.2-48.8,24.8-64.7c8-8,17.7-14.1,28.4-17.8
	c10.7-3.8,22-5.1,33.3-3.9l106.2,6.8c6.4,0.8,12.9,0,18.9-2.2c6.1-2.2,11.5-5.8,15.9-10.4c8.9-10.5,13.4-24,12.6-37.8v-31.9l0,0
	v-46.3c-0.2-17.8,2.7-35.6,8.5-52.4c5.1-15.1,13.3-29,24.1-40.8c10.6-11.2,23.7-19.9,38.2-25.2c16.1-5.9,33.2-8.2,50.3-6.8
	l103.5,6.8c18.6,1.4,32.6-2.4,42.2-11.2c9.5-8.8,14.3-23.7,14.3-44.6V304l0,0v-81.1c0-39.9-18.6-58.5-55.8-55.8l-106.9,6.8
	c-16.9,1.1-33.8-1.2-49.7-6.8c-14.1-5.3-26.7-13.8-36.8-24.9c-10.5-11.6-18.5-25.3-23.5-40.1c-5.7-17-8.4-34.9-8.2-52.8V0h-483v46.3
	H558.3z"/>
<path class="st1" d="M1602.3,0v37.8c0.8,13.7-3.7,27.2-12.6,37.8c-4.4,4.7-9.9,8.2-15.9,10.4c-6,2.2-12.5,2.9-18.9,2.2l-106.2-6.8
	c-11.2-1.2-22.6,0.2-33.3,3.9c-10.6,3.8-20.3,9.9-28.3,17.8c-15.6,15.9-23.9,37.5-24.8,64.7h-3.4c0.3-23.7-8.2-46.6-23.8-64.3
	c-7.7-8.1-17.2-14.3-27.7-18.1s-21.8-5.2-32.9-4l-106.9,6.8c-16.7,0.9-29-3.2-36.7-12.3c-8.3-10.9-12.4-24.4-11.6-38.1V0h-78v49.3
	c-0.3,17.9,2.5,35.8,8.2,52.8c5,14.9,13,28.5,23.5,40.1c10.1,11.1,22.7,19.6,36.8,24.9c15.9,5.6,32.8,7.9,49.7,6.8l106.9-6.8
	c37.2-2.7,55.8,15.9,55.8,55.8V304l0,0v78.4c0,20.8-4.8,35.7-14.3,44.6c-9.6,8.8-23.6,12.6-42.2,11.2l-103.5-6.8
	c-17.1-1.4-34.2,0.9-50.3,6.8c-14.5,5.4-27.6,14-38.2,25.2c-10.8,11.8-19,25.7-24.1,40.8c-5.8,16.9-8.7,34.6-8.5,52.4v46.3l0,0v31.9
	c0.8,13.7-3.7,27.2-12.6,37.8c-4.4,4.7-9.9,8.2-15.9,10.4s-12.5,2.9-18.9,2.2l-106.2-6.8c-11.2-1.2-22.6,0.2-33.3,3.9
	c-10.7,3.8-20.3,9.9-28.4,17.8c-15.6,15.9-23.9,37.5-24.8,64.7h-3.4c0.3-23.7-8.2-46.6-23.8-64.3c-7.7-8.1-17.2-14.3-27.7-18.1
	s-21.8-5.2-32.9-4l-106.9,6.8c-16.7,0.9-29-3.2-36.7-12.3c-8.3-10.9-12.4-24.4-11.6-38.1V600l0,0v-46.3c0.3-17.9-2.5-35.8-8.2-52.8
	c-5-14.9-13-28.5-23.5-40.1c-10.1-11.1-22.7-19.6-36.8-24.9c-15.9-5.6-32.8-7.9-49.7-6.8L333,435.9c-37.2,2.7-55.8-15.9-55.8-55.8
	V299l0,0v-78.4c0-20.8,4.8-35.7,14.3-44.6c9.6-8.8,23.6-12.6,42.2-11.2l103.5,6.8c17.1,1.4,34.2-0.9,50.3-6.8
	c14.5-5.4,27.5-14,38.1-25.2c10.8-11.8,19-25.7,24.1-40.8c5.8-16.9,8.7-34.6,8.5-52.4V0h-79v34.8c0.8,13.7-3.7,27.2-12.6,37.8
	c-4.4,4.7-9.9,8.2-15.9,10.4c-6,2.2-12.5,2.9-18.9,2.2l-106.2-6.8c-11.2-1.2-22.6,0.2-33.3,3.9c-10.7,3.8-20.3,9.9-28.4,17.8
	c-15.6,15.9-23.9,37.5-24.8,64.7h-3.4c0.3-23.7-8.2-46.6-23.8-64.3c-7.7-8.1-17.2-14.3-27.7-18.1c-10.5-3.8-21.8-5.2-32.9-4
	L44.6,85.2C27.9,86,15.6,82,7.9,72.9C-0.4,62-4.6,48.4-3.7,34.8V0h-78v46.3c-0.3,17.9,2.5,35.8,8.2,52.8c5,14.9,13,28.5,23.5,40.1
	c10.1,11.1,22.7,19.6,36.8,24.9c15.9,5.6,32.8,7.9,49.7,6.8l106.9-6.8c37.2-2.7,55.8,15.9,55.8,55.8V301l0,0v78.4
	c0,20.8-4.8,35.7-14.3,44.6c-9.6,8.8-23.6,12.6-42.2,11.2l-103.5-6.8c-17.1-1.4-34.2,0.9-50.3,6.8c-14.5,5.4-27.5,14-38.1,25.2
	c-10.8,11.8-19,25.7-24.1,40.8c-5.8,16.9-8.7,34.6-8.5,52.4v46.3h79v-34.8c-0.8-13.7,3.7-27.2,12.6-37.8c4.4-4.7,9.9-8.2,15.9-10.4
	s12.5-2.9,18.9-2.2l106.2,6.8c11.2,1.2,22.6-0.2,33.3-3.9c10.7-3.8,20.3-9.9,28.4-17.8c15.6-15.9,23.9-37.5,24.8-64.7h3.4
	c-0.3,23.7,8.2,46.6,23.8,64.3c7.7,8.1,17.2,14.3,27.7,18.1s21.8,5.2,32.9,4l106.9-6.8c16.7-0.9,29,3.2,36.7,12.3
	c8.3,10.9,12.4,24.4,11.6,38.1V600l0,0v46.3c-0.3,17.9,2.5,35.8,8.2,52.8c5,14.9,13,28.5,23.5,40.1c10.1,11.1,22.7,19.6,36.8,24.9
	c15.9,5.6,32.8,7.9,49.7,6.8l106.9-6.8c37.2-2.7,55.8,15.9,55.8,55.8V1007h78.1V820.6c0-20.8,4.8-35.7,14.3-44.6
	c9.6-8.8,23.6-12.6,42.2-11.2l103.5,6.8c17.1,1.4,34.2-0.9,50.3-6.8c14.5-5.4,27.6-14,38.2-25.2c10.8-11.8,19-25.7,24.1-40.8
	c5.8-16.9,8.7-34.6,8.5-52.4v-46.3l0,0v-31.9c-0.8-13.7,3.7-27.2,12.6-37.8c4.4-4.7,9.9-8.2,15.9-10.4s12.5-2.9,18.9-2.2l106.2,6.8
	c11.2,1.2,22.6-0.2,33.3-3.9c10.7-3.8,20.3-9.9,28.3-17.8c15.6-15.9,23.9-37.5,24.8-64.7h3.4c-0.3,23.7,8.2,46.6,23.8,64.4
	c7.7,8.1,17.2,14.3,27.7,18.1s21.8,5.2,32.9,4l106.9-6.8c16.7-0.9,29,3.2,36.7,12.3c8.3,10.9,12.4,24.4,11.6,38.1V603h78v-46.3
	c0.3-17.9-2.5-35.8-8.2-52.8c-5-14.9-12.9-28.5-23.5-40.1c-10.1-11.1-22.7-19.6-36.8-24.9c-15.9-5.6-32.8-7.9-49.7-6.8l-106.9,6.8
	c-37.2,2.7-55.8-15.9-55.8-55.8V302l0,0v-78.4c0-20.8,4.8-35.7,14.3-44.6c9.6-8.8,23.6-12.6,42.2-11.2l103.5,6.8
	c17.1,1.4,34.2-0.9,50.3-6.8c14.5-5.4,27.6-14,38.2-25.2c10.8-11.8,19-25.7,24.1-40.8c5.8-16.9,8.7-34.6,8.5-52.4V0H1602.3z"/>
<path class="st0" d="M1119.3,1749.2v37.8h483v-37.8c0.8-13.8-3.8-27.3-12.6-37.8c-4.4-4.6-9.8-8.2-15.9-10.4c-6-2.2-12.5-3-18.9-2.2
	l-106.2,6.8c-11.3,1.2-22.6-0.1-33.3-3.9c-10.6-3.7-20.3-9.8-28.3-17.8c-15.6-15.9-23.9-37.5-24.8-64.7h-3.4
	c0.3,23.6-8.2,46.5-23.8,64.3c-7.7,8.1-17.2,14.3-27.7,18.1c-10.5,3.8-21.8,5.2-32.9,4l-106.9-6.8c-16.7-0.9-29,3.2-36.7,12.3
	C1122.5,1722,1118.4,1735.5,1119.3,1749.2L1119.3,1749.2z"/>
<path class="st0" d="M-3.6,1752.2v34.8h483v-34.8c0.8-13.8-3.7-27.3-12.6-37.8c-4.4-4.6-9.9-8.2-15.9-10.4s-12.5-3-18.9-2.2
	l-106.2,6.8c-11.3,1.2-22.6-0.1-33.3-3.9c-10.7-3.7-20.4-9.8-28.4-17.8c-15.6-15.9-23.9-37.5-24.8-64.7h-3.4
	c0.3,23.6-8.2,46.5-23.8,64.3c-7.7,8.1-17.2,14.3-27.7,18.1c-10.5,3.8-21.8,5.2-32.9,4l-106.9-6.8c-16.7-0.9-29,3.2-36.7,12.3
	C-0.4,1725-4.6,1738.6-3.6,1752.2L-3.6,1752.2z"/>
<path class="st0" d="M558.5,1740.7v46.3h483v-49.3c-0.2-17.9,2.5-35.8,8.2-52.8c5-14.8,13-28.5,23.5-40.1
	c10.1-11.1,22.7-19.6,36.8-24.9c15.9-5.6,32.8-7.9,49.7-6.8l106.9,6.8c37.2,2.7,55.8-15.9,55.8-55.8V1483l0,0v-78.4
	c0-20.9-4.8-35.8-14.3-44.6c-9.6-8.8-23.6-12.6-42.2-11.2l-103.5,6.8c-17.1,1.4-34.2-0.9-50.3-6.8c-14.5-5.3-27.6-14-38.2-25.2
	c-10.8-11.8-19-25.7-24.1-40.8c-5.8-16.8-8.7-34.6-8.5-52.4v-46.3l0,0v-31.9c0.8-13.8-3.7-27.3-12.6-37.8
	c-4.4-4.6-9.8-8.2-15.9-10.4c-6-2.2-12.5-3-18.9-2.2l-106.2,6.8c-11.3,1.2-22.6-0.1-33.3-3.9c-10.7-3.7-20.4-9.8-28.4-17.8
	c-15.6-15.9-23.9-37.5-24.8-64.7h-3.4c0.3,23.6-8.2,46.5-23.8,64.3c-7.7,8.1-17.2,14.3-27.7,18.1c-10.5,3.8-21.8,5.2-32.9,4
	l-106.9-6.8c-16.7-0.9-29,3.2-36.7,12.3c-8.4,10.9-12.5,24.4-11.6,38.1v34.8l0,0v46.3c0.2,17.9-2.5,35.8-8.2,52.8
	c-5,14.8-13,28.5-23.5,40.1c-10.1,11.1-22.7,19.6-36.8,24.9c-15.9,5.6-32.8,7.9-49.7,6.8l-106.9-6.8c-37.2-2.7-55.8,15.9-55.8,55.8
	v81.1l0,0v78.5c0,20.9,4.8,35.8,14.3,44.6c9.6,8.8,23.7,12.6,42.2,11.2l103.5-6.8c17-1.4,34.2,0.9,50.3,6.8
	c14.4,5.3,27.5,14,38.1,25.2c10.8,11.8,19,25.7,24.1,40.8c5.8,16.8,8.7,34.6,8.5,52.4H558.5z"/>
<path class="st1" d="M1681.6,1787v-49.4c0.2-17.8-2.7-35.5-8.5-52.4c-5.1-15.1-13.3-29-24.1-40.8c-10.6-11.2-23.7-19.8-38.2-25.2
	c-16.1-5.9-33.2-8.2-50.3-6.8l-103.5,6.8c-18.6,1.4-32.6-2.4-42.2-11.2c-9.5-8.9-14.3-23.8-14.3-44.6V1485l0,0v-81.1
	c0-39.9,18.6-58.5,55.8-55.8l106.9,6.8c16.9,1.1,33.8-1.2,49.7-6.8c14.1-5.3,26.7-13.8,36.8-24.9c10.6-11.6,18.5-25.2,23.5-40.1
	c5.7-17,8.5-34.9,8.2-52.8V1184h-78v34.7c0.8,13.7-3.3,27.2-11.6,38.1c-7.7,9.1-20,13.2-36.7,12.3l-106.9-6.8
	c-11.1-1.2-22.4,0.2-32.9,4c-10.5,3.8-20,10-27.7,18.1c-15.6,17.8-24.1,40.7-23.8,64.4h-3.4c-0.9-27.2-9.2-48.8-24.8-64.7
	c-8-7.9-17.6-14-28.3-17.8c-10.7-3.7-22.1-5.1-33.3-3.9l-106.2,6.8c-6.4,0.7-12.9,0-18.9-2.2c-6-2.2-11.5-5.7-15.9-10.4
	c-8.9-10.6-13.4-24.1-12.6-37.8v-31.9l0,0v-46.3c0.2-17.8-2.7-35.5-8.5-52.4c-5.1-15.1-13.3-29-24.1-40.8
	c-10.6-11.2-23.7-19.8-38.2-25.2c-16.1-5.9-33.2-8.2-50.3-6.8l-103.5,6.8c-18.6,1.4-32.6-2.4-42.2-11.2
	c-9.5-8.9-14.3-23.8-14.3-44.6V850h-78.1v117.1c0,39.9-18.6,58.5-55.8,55.8l-106.9-6.8c-16.9-1.1-33.8,1.2-49.7,6.8
	c-14.1,5.3-26.7,13.8-36.8,24.9c-10.5,11.6-18.5,25.2-23.5,40.1c-5.7,17-8.5,34.9-8.2,52.8v46.3l0,0v34.9
	c0.8,13.7-3.3,27.2-11.6,38.1c-7.7,9.1-20,13.2-36.7,12.3l-106.9-6.8c-11.1-1.2-22.4,0.2-32.9,4c-10.5,3.8-20,10-27.7,18.1
	c-15.6,17.7-24.1,40.6-23.8,64.3h-3.4c-0.9-27.2-9.2-48.8-24.8-64.7c-8.1-7.9-17.7-14-28.4-17.8c-10.7-3.7-22.1-5.1-33.3-3.9
	l-106.2,6.8c-6.4,0.7-12.9,0-18.9-2.2s-11.5-5.7-15.9-10.4c-8.9-10.6-13.4-24.1-12.6-37.8v-34.8h-79v46.3
	c-0.2,17.8,2.7,35.5,8.5,52.4c5.1,15.1,13.3,29,24.1,40.8c10.6,11.2,23.6,19.8,38.1,25.2c16.1,5.9,33.2,8.2,50.3,6.8l103.5-6.8
	c18.6-1.4,32.6,2.4,42.2,11.2c9.5,8.9,14.3,23.8,14.3,44.6v78.4l0,0v81.1c0,39.9-18.6,58.5-55.8,55.8l-106.9-6.8
	c-16.9-1.1-33.8,1.2-49.7,6.8c-14.1,5.3-26.7,13.8-36.8,24.9c-10.5,11.6-18.5,25.2-23.5,40.1c-5.7,17-8.5,34.9-8.2,52.8v46.3h78
	v-34.8c-0.9-13.6,3.3-27.2,11.6-38.1c7.7-9.1,20-13.1,36.7-12.3l106.7,6.8c11.1,1.2,22.4-0.2,32.9-4c10.5-3.8,20-10,27.7-18.1
	c15.6-17.7,24.1-40.6,23.8-64.3h3.4c0.9,27.2,9.2,48.8,24.8,64.7c8.1,7.9,17.7,14,28.4,17.8c10.7,3.7,22.1,5.1,33.3,3.9l106.2-6.8
	c6.4-0.7,12.9,0,18.9,2.2s11.5,5.7,15.9,10.4c8.9,10.6,13.4,24.1,12.6,37.8v34.8h79v-46.4c0.2-17.8-2.7-35.5-8.5-52.4
	c-5.1-15.1-13.3-29-24.1-40.8c-10.6-11.2-23.6-19.8-38.1-25.2c-16.1-5.9-33.2-8.2-50.3-6.8l-103.5,6.8c-18.6,1.4-32.6-2.4-42.2-11.2
	c-9.5-8.9-14.3-23.8-14.3-44.6V1488l0,0v-81.1c0-39.9,18.6-58.5,55.8-55.8l106.8,6.8c16.9,1.1,33.8-1.2,49.7-6.8
	c14.1-5.3,26.7-13.8,36.8-24.9c10.5-11.6,18.5-25.2,23.5-40.1c5.7-17,8.5-34.9,8.2-52.8V1187l0,0v-34.8
	c-0.8-13.7,3.3-27.2,11.6-38.1c7.7-9.1,20-13.2,36.7-12.3l106.9,6.8c11.1,1.2,22.4-0.2,32.9-4s20-10,27.7-18.1
	c15.6-17.7,24.1-40.6,23.8-64.3h3.4c0.9,27.2,9.2,48.8,24.8,64.7c8.1,7.9,17.7,14,28.4,17.8c10.7,3.7,22.1,5.1,33.3,3.9l106.2-6.8
	c6.4-0.7,12.9,0,18.9,2.2c6,2.2,11.5,5.7,15.9,10.4c8.9,10.6,13.4,24.1,12.6,37.8v31.9l0,0v46.3c-0.2,17.8,2.7,35.5,8.5,52.4
	c5.1,15.1,13.3,29,24.1,40.8c10.6,11.2,23.7,19.8,38.2,25.2c16.1,5.9,33.2,8.2,50.3,6.8l103.5-6.8c18.6-1.4,32.6,2.4,42.2,11.2
	c9.5,8.9,14.3,23.8,14.3,44.6v78.4l0,0v81.1c0,39.9-18.6,58.5-55.8,55.8l-106.9-6.8c-16.9-1.1-33.8,1.2-49.7,6.8
	c-14.1,5.3-26.7,13.8-36.8,24.9c-10.5,11.6-18.5,25.2-23.5,40.1c-5.7,17-8.5,34.9-8.2,52.8v49.3h78v-37.8
	c-0.8-13.7,3.3-27.2,11.6-38.1c7.7-9.1,20-13.2,36.7-12.3l106.9,6.8c11.1,1.2,22.4-0.2,32.9-4c10.5-3.8,20-10,27.7-18.1
	c15.6-17.7,24.1-40.6,23.8-64.3h3.4c0.9,27.2,9.2,48.8,24.8,64.7c8,7.9,17.7,14,28.3,17.8c10.7,3.7,22.1,5.1,33.3,3.9l106.2-6.8
	c6.4-0.7,12.9,0,18.9,2.2s11.5,5.7,15.9,10.4c8.9,10.6,13.4,24.1,12.6,37.8v37.8H1681.6z"/>
</svg>
