<?xml version="1.0" encoding="utf-8"?>
<!-- Generator: Adobe Illustrator 24.2.0, SVG Export Plug-In . SVG Version: 6.00 Build 0)  -->
<svg version="1.1" id="Layer_1" xmlns="http://www.w3.org/2000/svg" xmlns:xlink="http://www.w3.org/1999/xlink" x="0px" y="0px"
	 viewBox="0 0 1600 1560.4" enable-background="new 0 0 1600 1560.4" xml:space="preserve">
<path fill-rule="evenodd" clip-rule="evenodd" d="M1456,1396.2c-37.2,2.7-55.8-15.9-55.8-55.8v-81.1h0V1181
	c0-20.8,4.8-35.7,14.3-44.6c9.6-8.8,23.6-12.6,42.2-11.2l103.5,6.8c17.1,1.4,34.2-0.9,50.3-6.8c14.5-5.4,27.6-14,38.2-25.2
	c10.8-11.8,19-25.7,24.1-40.8c5.8-16.9,8.7-34.6,8.5-52.4v-46.3h-79v34.8c0.8,13.7-3.7,27.2-12.6,37.8c-4.4,4.7-9.9,8.2-15.9,10.4
	c-6,2.2-12.5,2.9-18.9,2.2l-106.2-6.8c-11.2-1.2-22.6,0.2-33.3,3.9c-10.6,3.8-20.3,9.9-28.3,17.8c-15.6,15.9-23.9,37.5-24.8,64.7
	h-3.4c0.3-23.7-8.2-46.6-23.8-64.3c-7.7-8.1-17.2-14.3-27.7-18.1s-21.8-5.2-32.9-4l-106.9,6.8c-16.7,0.9-29-3.2-36.7-12.3
	c-8.3-10.9-12.4-24.4-11.6-38.1v-34.8h0v-43.3c0.2-17.9-2.5-35.8-8.2-52.8c-5-14.9-13-28.5-23.5-40.1
	c-10.1-11.1-22.7-19.6-36.8-24.9c-15.9-5.6-32.8-7.9-49.7-6.8l-106.9,6.8c-37.2,2.7-55.8-15.9-55.8-55.8V-6.6h-78.1v749.4
	c0,20.8-4.8,35.7-14.3,44.6c-9.6,8.8-23.6,12.6-42.2,11.2l-103.5-6.8c-17.1-1.4-34.2,0.9-50.3,6.8c-14.5,5.4-27.5,14-38.1,25.2
	c-10.8,11.8-19,25.7-24.1,40.8c-5.8,16.9-8.7,34.6-8.5,52.4v46.3h0v31.9c0.8,13.7-3.7,27.2-12.6,37.8c-4.4,4.7-9.9,8.2-15.9,10.4
	c-6,2.2-12.5,2.9-18.9,2.2l-106.2-6.8c-11.2-1.2-22.6,0.2-33.3,3.9c-10.7,3.8-20.3,9.9-28.4,17.8c-15.6,15.9-23.9,37.5-24.8,64.7
	h-3.4c0.3-23.7-8.2-46.6-23.8-64.3c-7.7-8.1-17.2-14.3-27.7-18.1c-10.5-3.8-21.8-5.2-32.9-4l-106.9,6.8c-16.7,0.9-29-3.2-36.7-12.3
	c-8.3-10.9-12.4-24.4-11.6-38.1v-34.8h-78v46.3c-0.3,17.9,2.5,35.8,8.2,52.8c5,14.9,13,28.5,23.5,40.1
	c10.1,11.1,22.7,19.6,36.8,24.9c15.9,5.6,32.8,7.9,49.7,6.8l106.9-6.8c37.2-2.7,55.8,15.9,55.8,55.8v81.1h0v78.4
	c0,20.8-4.8,35.7-14.3,44.6c-9.6,8.8-23.6,12.6-42.2,11.2l-103.5-6.8c-17.1-1.4-34.2,0.9-50.3,6.8c-14.5,5.4-27.5,14-38.1,25.2
	c-10.8,11.8-19,25.7-24.1,40.8c-5.8,16.9-8.7,34.6-8.5,52.5v46.2h79v-34.8c-0.8-13.7,3.7-27.2,12.6-37.8c4.4-4.7,9.9-8.2,15.9-10.4
	c6-2.2,12.5-2.9,18.9-2.2l106.2,6.8c11.2,1.2,22.6-0.2,33.3-3.9c10.7-3.8,20.3-9.9,28.4-17.8c15.6-15.9,23.9-37.5,24.8-64.7h3.4
	c-0.3,23.7,8.2,46.6,23.8,64.3c7.7,8.1,17.2,14.3,27.7,18.1c10.5,3.8,21.8,5.2,32.9,4l106.9-6.8c16.7-0.9,29,3.2,36.7,12.3
	c8.3,10.9,12.4,24.4,11.6,38.1v34.8h78v-46.3c0.3-17.9-2.5-35.8-8.2-52.8c-5-14.8-13-28.5-23.5-40.1c-10.1-11.1-22.7-19.6-36.8-24.9
	c-15.9-5.6-32.8-7.9-49.7-6.8l-106.9,6.8c-37.2,2.7-55.8-15.9-55.8-55.8v-81.1h0V1181c0-20.8,4.8-35.7,14.3-44.6
	c9.6-8.8,23.6-12.6,42.2-11.2l103.5,6.8c17.1,1.4,34.2-0.9,50.3-6.8c14.5-5.4,27.5-14,38.1-25.2c10.8-11.8,19-25.7,24.1-40.8
	c5.8-16.9,8.7-34.6,8.5-52.4v-46.3h0v-31.9c-0.8-13.7,3.7-27.2,12.6-37.8c4.4-4.7,9.9-8.2,15.9-10.4c6-2.2,12.5-2.9,18.9-2.2
	l106.2,6.8c11.2,1.2,22.6-0.2,33.3-3.9s20.3-9.9,28.4-17.8c15.6-15.9,23.9-37.5,24.8-64.7h3.4c-0.3,23.7,8.2,46.6,23.8,64.4
	c7.7,8.1,17.2,14.3,27.7,18.1c10.5,3.8,21.8,5.2,32.9,4l106.9-6.8c16.7-0.9,29,3.2,36.7,12.3c8.3,10.9,12.4,24.4,11.6,38.1v34.8h0
	v43.3c-0.3,17.9,2.5,35.8,8.2,52.8c5,14.9,13,28.5,23.5,40.1c10.1,11.1,22.7,19.6,36.8,24.9c15.9,5.6,32.8,7.9,49.7,6.8l106.9-6.8
	c37.2-2.7,55.8,15.9,55.8,55.8v81.1h0v78.4c0,20.8-4.8,35.7-14.3,44.6c-9.6,8.8-23.6,12.6-42.2,11.2l-103.5-6.8
	c-17.1-1.4-34.2,0.9-50.3,6.8c-14.5,5.4-27.6,14-38.2,25.2c-10.8,11.8-19,25.7-24.1,40.8c-5.8,16.9-8.7,34.6-8.5,52.5v46.2h78.9
	v-34.8c-0.8-13.7,3.7-27.2,12.6-37.8c4.4-4.7,9.9-8.2,15.9-10.4c6-2.2,12.5-2.9,18.9-2.2l106.2,6.8c11.2,1.2,22.6-0.2,33.3-3.9
	c10.7-3.8,20.3-9.9,28.3-17.8c15.6-15.9,23.9-37.5,24.8-64.7h3.4c-0.3,23.7,8.2,46.6,23.8,64.3c7.7,8.1,17.2,14.3,27.7,18.1
	c10.5,3.8,21.8,5.2,32.9,4l106.9-6.8c16.7-0.9,29,3.2,36.7,12.3c8.3,10.9,12.4,24.4,11.6,38.1v34.8h78v-46.3
	c0.3-17.9-2.5-35.8-8.2-52.8c-5-14.8-12.9-28.5-23.5-40.1c-10.1-11.1-22.7-19.6-36.8-24.9c-15.9-5.6-32.8-7.9-49.7-6.8L1456,1396.2z
	"/>
</svg>
