<svg width="641" height="1274" viewBox="0 0 641 1274" fill="none" xmlns="http://www.w3.org/2000/svg">
<path d="M359.201 353.083C359.201 392.989 377.789 411.582 414.964 408.861L521.864 402.059C538.724 400.921 555.638 403.236 571.573 408.861C585.639 414.119 598.251 422.653 608.363 433.757C618.867 445.373 626.855 459.037 631.824 473.891C637.479 490.905 640.237 508.748 639.984 526.676L639.984 573L561.985 573L561.985 538.24C562.852 524.563 558.746 511.034 550.425 500.147C542.74 491.032 530.432 486.951 513.703 487.835L406.803 494.638C395.685 495.849 384.438 494.485 373.931 490.651C363.424 486.818 353.94 480.617 346.213 472.53C330.601 454.76 322.122 431.836 322.412 408.181L319.012 408.181C318.105 435.39 309.832 456.953 294.191 472.87C286.179 480.844 276.494 486.934 265.838 490.699C255.182 494.463 243.821 495.809 232.581 494.638L126.361 487.835C119.978 487.066 113.503 487.803 107.457 489.989C101.411 492.174 95.9603 495.747 91.5433 500.42C82.6869 510.936 78.186 524.443 78.9629 538.172L78.9629 572.932L0.0118887 572.932L0.0118907 526.676C-0.209361 508.834 2.66674 491.089 8.5122 474.231C13.6251 459.091 21.8482 445.188 32.6531 433.417C43.2538 422.175 56.3106 413.537 70.8025 408.181C86.8766 402.257 104.055 399.935 121.124 401.379L224.624 408.181C243.166 409.541 257.22 405.8 266.786 396.957C276.306 388.114 281.134 373.217 281.134 352.402L281.134 272L359.201 272L359.201 353.083Z" fill="#F6F6F6"/>
<path d="M359.201 955.083C359.201 994.989 377.789 1013.58 414.964 1010.86L521.864 1004.06C538.724 1002.92 555.638 1005.24 571.573 1010.86C585.639 1016.12 598.251 1024.65 608.363 1035.76C618.867 1047.37 626.855 1061.04 631.824 1075.89C637.479 1092.9 640.237 1110.75 639.984 1128.68L639.984 1175L561.985 1175L561.985 1140.24C562.852 1126.56 558.746 1113.03 550.425 1102.15C542.74 1093.03 530.432 1088.95 513.703 1089.84L406.803 1096.64C395.685 1097.85 384.438 1096.48 373.931 1092.65C363.424 1088.82 353.94 1082.62 346.213 1074.53C330.601 1056.76 322.122 1033.84 322.412 1010.18L319.012 1010.18C318.105 1037.39 309.832 1058.95 294.191 1074.87C286.179 1082.84 276.494 1088.93 265.838 1092.7C255.182 1096.46 243.821 1097.81 232.581 1096.64L126.361 1089.84C119.978 1089.07 113.503 1089.8 107.457 1091.99C101.411 1094.17 95.9603 1097.75 91.5433 1102.42C82.6869 1112.94 78.186 1126.44 78.9629 1140.17L78.9629 1174.93L0.0118887 1174.93L0.0118907 1128.68C-0.209361 1110.83 2.66674 1093.09 8.5122 1076.23C13.6251 1061.09 21.8482 1047.19 32.6531 1035.42C43.2538 1024.17 56.3106 1015.54 70.8025 1010.18C86.8766 1004.26 104.055 1001.93 121.124 1003.38L224.624 1010.18C243.166 1011.54 257.22 1007.8 266.786 998.957C276.306 990.114 281.134 975.217 281.134 954.402L281.134 874L359.201 874L359.201 955.083Z" fill="#F6F6F6"/>
<path d="M281.1 191.917C281.1 152.01 262.513 133.418 225.338 136.139L118.438 142.941C101.578 144.079 84.6634 141.764 68.7283 136.139C54.6624 130.881 42.0511 122.346 31.939 111.242C21.4347 99.6265 13.447 85.9623 8.47807 71.1089C2.82272 54.0948 0.0642541 36.2515 0.317774 18.3234L0.317774 -28L78.3167 -28L78.3167 6.75955C77.4499 20.4364 81.5558 33.9655 89.8771 44.8522C97.5614 53.9672 109.87 58.0486 126.599 57.1643L233.499 50.362C244.617 49.151 255.864 50.515 266.371 54.3485C276.877 58.182 286.361 64.3822 294.089 72.4694C309.7 90.2396 318.179 113.164 317.89 136.819L321.29 136.819C322.197 109.61 330.47 88.0465 346.111 72.1292C354.122 64.1559 363.808 58.066 374.464 54.3011C385.12 50.5361 396.481 49.1906 407.721 50.362L513.941 57.1643C520.324 57.9338 526.798 57.1962 532.845 55.0109C538.891 52.8255 544.341 49.253 548.758 44.5801C557.615 34.0631 562.116 20.5566 561.339 6.82755L561.339 -27.932L640.29 -27.932L640.29 18.3234C640.511 36.1655 637.635 53.9106 631.79 70.7688C626.677 85.9088 618.454 99.8112 607.649 111.582C597.048 122.825 583.991 131.462 569.499 136.819C553.425 142.743 536.247 145.065 519.177 143.621L415.677 136.819C397.135 135.458 383.082 139.2 373.516 148.042C363.996 156.885 359.167 171.782 359.167 192.597L359.167 273L281.1 273L281.1 191.917Z" fill="#F6F6F6"/>
<path d="M281.1 792.917C281.1 753.01 262.513 734.417 225.338 737.138L118.438 743.94C101.578 745.078 84.6634 742.764 68.7283 737.138C54.6624 731.88 42.0511 723.346 31.939 712.242C21.4347 700.626 13.447 686.962 8.47807 672.109C2.82272 655.094 0.0642541 637.251 0.317774 619.323L0.317774 573L78.3167 573L78.3167 607.759C77.4499 621.436 81.5558 634.965 89.8771 645.852C97.5614 654.967 109.87 659.048 126.599 658.164L233.499 651.362C244.617 650.151 255.864 651.515 266.371 655.348C276.877 659.182 286.361 665.382 294.089 673.469C309.7 691.239 318.179 714.163 317.89 737.818L321.29 737.818C322.197 710.609 330.47 689.046 346.111 673.129C354.122 665.156 363.808 659.066 374.464 655.301C385.12 651.536 396.481 650.19 407.721 651.362L513.941 658.164C520.324 658.933 526.798 658.196 532.845 656.01C538.891 653.825 544.341 650.253 548.758 645.58C557.615 635.063 562.116 621.556 561.339 607.827L561.339 573.068L640.29 573.068L640.29 619.323C640.511 637.165 637.635 654.91 631.79 671.768C626.677 686.908 618.454 700.811 607.649 712.582C597.048 723.824 583.991 732.462 569.499 737.818C553.425 743.742 536.247 746.065 519.177 744.621L415.677 737.818C397.135 736.458 383.082 740.199 373.516 749.042C363.996 757.885 359.167 772.782 359.167 793.597L359.167 874L281.1 874L281.1 792.917Z" fill="#F6F6F6"/>
<path d="M281.1 1394.92C281.1 1355.01 262.513 1336.42 225.338 1339.14L118.438 1345.94C101.578 1347.08 84.6634 1344.76 68.7283 1339.14C54.6624 1333.88 42.0511 1325.35 31.939 1314.24C21.4347 1302.63 13.447 1288.96 8.47807 1274.11C2.82272 1257.09 0.0642541 1239.25 0.317774 1221.32L0.317774 1175L78.3167 1175L78.3167 1209.76C77.4499 1223.44 81.5558 1236.97 89.8771 1247.85C97.5614 1256.97 109.87 1261.05 126.599 1260.16L233.499 1253.36C244.617 1252.15 255.864 1253.51 266.371 1257.35C276.877 1261.18 286.361 1267.38 294.089 1275.47C309.7 1293.24 318.179 1316.16 317.89 1339.82L321.29 1339.82C322.197 1312.61 330.47 1291.05 346.111 1275.13C354.122 1267.16 363.808 1261.07 374.464 1257.3C385.12 1253.54 396.481 1252.19 407.721 1253.36L513.941 1260.16C520.324 1260.93 526.798 1260.2 532.845 1258.01C538.891 1255.83 544.341 1252.25 548.758 1247.58C557.615 1237.06 562.116 1223.56 561.339 1209.83L561.339 1175.07L640.29 1175.07L640.29 1221.32C640.511 1239.17 637.635 1256.91 631.79 1273.77C626.677 1288.91 618.454 1302.81 607.649 1314.58C597.048 1325.82 583.991 1334.46 569.499 1339.82C553.425 1345.74 536.247 1348.06 519.177 1346.62L415.677 1339.82C397.135 1338.46 383.082 1342.2 373.516 1351.04C363.996 1359.89 359.167 1374.78 359.167 1395.6L359.167 1476L281.1 1476L281.1 1394.92Z" fill="#F6F6F6"/>
</svg>
